<?xml version="1.0" encoding="utf-8"?>
<!-- Generator: Adobe Illustrator 26.0.0, SVG Export Plug-In . SVG Version: 6.00 Build 0)  -->
<svg version="1.1" id="Layer_1" xmlns="http://www.w3.org/2000/svg" xmlns:xlink="http://www.w3.org/1999/xlink" x="0px" y="0px"
	 viewBox="0 0 560 180" style="enable-background:new 0 0 560 180;" xml:space="preserve">
<style type="text/css">
	.st0{fill:url(#SVGID_1_);}
	.st1{opacity:0.5;}
	.st2{fill:#DC5456;}
	.st3{fill:#FFFFFF;}
	.st4{fill:url(#SVGID_00000145744994626514920390000018278384718963396282_);}
	.st5{fill:url(#SVGID_00000133517537992774131130000001871115318124255931_);}
	.st6{fill:url(#SVGID_00000137130800696305823310000008350318657952414342_);}
	.st7{fill:url(#SVGID_00000079478874517271167540000004245790802586167967_);}
	.st8{fill:url(#SVGID_00000005258573731182689190000013821249147652283058_);}
	.st9{fill:url(#SVGID_00000124152839941698132830000001891682796981702794_);}
	.st10{fill:url(#SVGID_00000083777682251715870260000014680216142506833797_);}
	.st11{fill:url(#SVGID_00000175300864815726600840000004045811964570802571_);}
	.st12{fill:url(#SVGID_00000149349933809934276610000005515378659393591202_);}
	.st13{fill:url(#SVGID_00000103263502958583633470000002576374063167551915_);}
	.st14{fill:url(#SVGID_00000048483500274982667290000015650305560946849949_);}
	.st15{opacity:0.25;}
</style>
<g>
	<g>
		<g>
			
				<linearGradient id="SVGID_1_" gradientUnits="userSpaceOnUse" x1="279.95" y1="901.4" x2="279.95" y2="1045.6" gradientTransform="matrix(1 0 0 1 0 -898)">
				<stop  offset="0" style="stop-color:#CC0000"/>
				<stop  offset="1" style="stop-color:#881100"/>
			</linearGradient>
			<path class="st0" d="M395.2,3.4H164.8c-19.5,0-35.4,15.8-35.4,35.3v73.6c0,19.5,15.8,35.3,35.4,35.3h216.7
				c19.5,0,49-15.8,49-35.3V38.7C430.5,19.2,414.7,3.4,395.2,3.4z"/>
			<path d="M381.6,151H164.8c-21.4,0-38.8-17.4-38.8-38.7V38.7C126,17.4,143.4,0,164.8,0h230.3c21.4,0,38.8,17.4,38.8,38.7v73.6
				C433.9,134.4,402.2,151,381.6,151z M164.8,6.8c-17.6,0-32,14.3-32,31.9v73.6c0,17.6,14.3,31.9,32,31.9h216.7
				c17.6,0,45.6-14.6,45.6-31.9V38.7c0-17.6-14.3-31.9-32-31.9C395.1,6.8,164.8,6.8,164.8,6.8z"/>
		</g>
		<g class="st1">
			<path class="st2" d="M395.2,3.4H164.8c-19.5,0-35.4,15.8-35.4,35.3v73.6c0,19.5,15.8,35.3,35.4,35.3h216.7
				c19.5,0,49-15.8,49-35.3V38.7C430.5,19.2,414.7,3.4,395.2,3.4z"/>
			<path d="M381.6,151H164.8c-21.4,0-38.8-17.4-38.8-38.7V38.7C126,17.4,143.4,0,164.8,0h230.3c21.4,0,38.8,17.4,38.8,38.7v73.6
				C433.9,134.4,402.2,151,381.6,151z M164.8,6.8c-17.6,0-32,14.3-32,31.9v73.6c0,17.6,14.3,31.9,32,31.9h216.7
				c17.6,0,45.6-14.6,45.6-31.9V38.7c0-17.6-14.3-31.9-32-31.9C395.1,6.8,164.8,6.8,164.8,6.8z"/>
		</g>
		<g>
			<path class="st3" d="M173.4,55.5c-9.8,0-17.8-8-17.8-17.8s8-17.8,17.8-17.8s17.8,8,17.8,17.8S183.2,55.5,173.4,55.5z M173.4,22.4
				c-8.5,0-15.4,6.9-15.4,15.3S164.9,53,173.4,53s15.4-6.9,15.4-15.3S181.8,22.4,173.4,22.4z"/>
		</g>
		<g>
			<path class="st3" d="M207.6,38.6c-4,0-7.2-3.2-7.2-7.2s3.2-7.2,7.2-7.2s7.2,3.2,7.2,7.2S211.6,38.6,207.6,38.6z M207.6,25.2
				c-3.5,0-6.3,2.8-6.3,6.3s2.8,6.3,6.3,6.3s6.3-2.8,6.3-6.3S211.1,25.2,207.6,25.2z"/>
		</g>
		<g>
			<path class="st3" d="M225.2,38.6c-4,0-7.2-3.2-7.2-7.2s3.2-7.2,7.2-7.2s7.2,3.2,7.2,7.2S229.2,38.6,225.2,38.6z M225.2,25.2
				c-3.5,0-6.3,2.8-6.3,6.3s2.8,6.3,6.3,6.3s6.3-2.8,6.3-6.3S228.7,25.2,225.2,25.2z"/>
		</g>
		<g>
			<path class="st3" d="M242.8,38.6c-4,0-7.2-3.2-7.2-7.2s3.2-7.2,7.2-7.2s7.2,3.2,7.2,7.2S246.8,38.6,242.8,38.6z M242.8,25.2
				c-3.5,0-6.3,2.8-6.3,6.3s2.8,6.3,6.3,6.3s6.3-2.8,6.3-6.3S246.3,25.2,242.8,25.2z"/>
		</g>
		<path class="st3" d="M409.6,38.6H269.7c-0.4,0-0.8,0.1-1.1,0.4L238,66.3h-90.2c-1,0-1.7,0.8-1.7,1.8s0.8,1.8,1.7,1.8h90.8
			c0.4,0,0.8-0.1,1.1-0.4l30.6-27.3h110.1v91.6c0,0.9,0.8,1.7,1.8,1.7s1.8-0.7,1.8-1.7V42.2h25.7c1,0,1.7-0.8,1.7-1.8
			C411.3,39.4,410.5,38.6,409.6,38.6z"/>
	</g>
	<g>
		<g>
			<g>
				<polygon points="304.2,122.9 300.6,122.9 300.5,122.9 300.5,123.3 300.5,137.6 300.5,138.1 300.6,138.1 304.1,138.1 306,141.2 
					314,154.2 314,106.5 306.1,119.8 				"/>
			</g>
			<g>
				<path d="M543.2,153l-16.9-22.5l17.4-22.5l7.9-10.3l8.5-11h-13.8h-13H510h-3.2h-3.3l-2.1,2.6l-1.9,2.5l-1.5,2l-1.6-2.1l-1.9-2.4
					l-2.1-2.6h-3.3H486h-7.6l0,0h-12.1H455h-5.5h-13.9l0.1,0.1L410.1,87h-2.5h-2.7l-2,1.9l-1.9,1.8l-11.6,11.1l-11.8-11.2l-1.9-1.8
					l-2-1.9h-2.5h-2.5H334l0,0h-12.1h-11.3h-3.4v-6v-7.7v-8.3l-8,1.4l-7.5,1.3l-24.9,4.5l-5.3,1l-5.6,1v5.7v5.4v1.5h-0.5h-14.8
					h-23.8h-2.9h-3l-2.1,2.3l0,0v-2.3H202h-6.4h-17.5h-6.4H165v6.8v5.8c-9.1-11.3-23-18.5-38.4-18.5c-18.5,0-34.5,10.2-42.9,25.2
					L66.8,90.4L65,88.7l-2-1.9h-2.6H58h-6H30H19.3h-6.6H6.8H0v6.8v6.3V161v6v6.8h6.8h6H30h6h6.8V167v-6v-2.7h16.3h2.3H64l2-1.9
					l1.8-1.6L79,144.5c6,20.5,25,35.5,47.3,35.5c15.6,0,29.4-7.2,38.4-18.5v6v6.8h6.8h6.4h17.5h6.4h6.8v-4.2l1.5,1.8l2.1,2.4h3.2h3
					h23.5H256h14.9l-0.1-0.2l39.8-0.1H322h12.2l-0.1-0.1h34.5h2.5h2.7l2-1.9l1.9-1.8l11.5-11l11.9,11.3l1.9,1.8l2,1.9h2.7h2.5
					l25.4-0.1l-0.2,0.2h14.1h13.1h23.3h3.1h3.3l2.1-2.5l1.9-2.4l1.9-2.4l1.8,2.3l1.9,2.4l2.1,2.6h3.3h3.1H533h12.7H559l-8.2-11
					L543.2,153z M63.3,149.8l-1.8,1.6h-2.3H36.1v9.5v6h-6H12.8h-6v-6v-61v-6h6h6.6h10.7h22h6h2.3l1.8,1.6l17.1,16l1.1,1
					c-2.2,5.6-3.4,11.6-3.4,17.9c0,2.1,0.1,4.2,0.4,6.3L63.3,149.8z M126.5,173.2c-20.5,0-37.7-14.6-41.7-34l1.1-1l2.2-2.1v-3v-2.6
					v-14.6v-2.6v-1.4c6.9-14.4,21.5-24.2,38.3-24.2c16.9,0,31.6,10,38.4,24.5v36.6C158.1,163.1,143.4,173.2,126.5,173.2z
					 M218.4,167.5h-3l-1.9-2.3L202,151.5v9.7v6.4h-6.4h-17.5h-6.4v-6.4v-10.9c2.6-6,4.1-12.7,4.1-19.7s-1.4-13.7-4.1-19.7v-11v-6.4
					h6.4h17.5h6.4v6.4v7.1l10-11.3l1.9-2.2h2.9h23.8h12.8L240.2,106l-2,1.9l-2.1,2v3v1.1l-13.7,14.7l13.7,15.9v0.7v2.7v3l2.1,2
					l2,1.9l13.2,12.6H242h-23.5l0,0L218.4,167.5L218.4,167.5z M532.7,167.4h-22.5h-3.1l-1.9-2.4l-7-9.1L491,165l-1.9,2.4H486h-23.3
					h-13.1l0.2-0.3l-39.4,0.1h-2.5l-1.9-1.8l-16.4-15.6l-0.1-0.1l-16.3,15.5l-1.9,1.8h-2.5h-46.7l0.1,0.1h-11.4l-45.1,0.2H265
					l-3.7-4.4l-9.2-10.6l-9-10.3v-25.2l7.2-7.7l10.1-10.7l10.8-11.5h-8.3v-1.5V80l5.3-1l24.9-4.5l7.5-1.3v7.7v9.3v3.4h10.3h11.3l0,0
					H369h2.5l1.9,1.8l16,15.7l0.1,0.1l16.4-15.6l1.9-1.8h2.5l39.4-0.1l0,0h5.5h11.3l0,0h19.7h3.1L491,96l7,9l6.8-8.9l1.9-2.5h3.2
					h23.3h13l-7.9,10.3l-20.5,26.7l20,26.7l7.7,10.2h-12.8V167.4z"/>
			</g>
			<g>
				<path d="M450.5,119.8l-1.9,3.1H445h-0.1v0.4v14.3v0.7l0,0h3.5l1.9,3l8.7,13.9l19.2-24.6L459,105.7L450.5,119.8z M469.6,130.5
					l-9.9,12.7l-3.5-5.6l-1.9-3l-2-3.2h-0.5v-1.6h0.7l2-3.3l1.9-3.1l3.4-5.6L469.6,130.5z"/>
			</g>
		</g>
		<g>
			<g>
				
					<linearGradient id="SVGID_00000121984006384515196190000012412745495891606971_" gradientUnits="userSpaceOnUse" x1="425.65" y1="-813.7" x2="425.65" y2="-910.0704" gradientTransform="matrix(1 0 0 -1 0 -717)">
					<stop  offset="0" style="stop-color:#DDDDDD"/>
					<stop  offset="0.75" style="stop-color:#554C4C"/>
					<stop  offset="1" style="stop-color:#554444"/>
				</linearGradient>
				<polygon style="fill:url(#SVGID_00000121984006384515196190000012412745495891606971_);" points="390.6,146.7 390.6,114.3 
					408.9,96.9 460.7,96.7 446.9,119.7 416.6,119.7 416.6,120.1 441.8,120.1 441.8,140.7 416.6,140.7 416.6,141.4 446.8,141.4 
					460.7,163.9 408.9,164.1 				"/>
				<path class="st3" d="M455,99.9l-10,16.6h-31.7v6.8h25.3v14.3h-25.3v7h31.6l10,16.2L410,161l-16.4-15.6v-29.5l16.4-15.6L455,99.9
					 M466.3,93.5H455l-44.9,0.2h-2.5l-1.9,1.8L389.3,111l-2,1.9v2.7v29.5v2.7l2,1.9l16.4,15.6l1.9,1.8h2.5l44.9-0.2h11.4l-6-9.7
					l-10-16.2l-1.9-3H445l0,0v-0.7V123v-0.4h0.1h3.6l1.9-3.1l10-16.6L466.3,93.5L466.3,93.5z"/>
			</g>
			<g>
				
					<linearGradient id="SVGID_00000032608618950543605450000008935804375226735513_" gradientUnits="userSpaceOnUse" x1="497.85" y1="-813.7" x2="497.85" y2="-910.2458" gradientTransform="matrix(1 0 0 -1 0 -717)">
					<stop  offset="0" style="stop-color:#DDDDDD"/>
					<stop  offset="1" style="stop-color:#666655"/>
				</linearGradient>
				<polygon style="fill:url(#SVGID_00000032608618950543605450000008935804375226735513_);" points="508.6,164.2 498.1,150.7 
					487.3,164.2 456,164.2 482.4,130.5 456.1,96.7 487.5,96.7 498.1,110.1 508.4,96.7 539.7,96.7 513.8,130.5 539,164.2 				"/>
				<path class="st3" d="M533.3,99.9l-23.5,30.6l22.8,30.5h-22.5l-12-15.5L485.9,161h-23.3l23.8-30.5l-23.8-30.6H486l12.1,15.5
					L510,99.9H533.3 M546.2,93.6h-13h-23.3h-3.2l-1.9,2.5L498,105l-7-9l-1.9-2.4H486h-23.4h-13l7.9,10.3l20.8,26.8l-20.8,26.5
					l-8,10.3h13.1H486h3.1l1.9-2.4l7.2-9.1l7,9.1l1.9,2.4h3.1h22.5h12.7l-7.6-10.2l-20-26.7l20.5-26.8L546.2,93.6L546.2,93.6z"/>
			</g>
			<g>
				
					<linearGradient id="SVGID_00000140713594741780882710000006163442900335827356_" gradientUnits="userSpaceOnUse" x1="352.65" y1="-813.7" x2="352.65" y2="-909.521" gradientTransform="matrix(1 0 0 -1 0 -717)">
					<stop  offset="0" style="stop-color:#DDDDDD"/>
					<stop  offset="0.75" style="stop-color:#554C4C"/>
					<stop  offset="1" style="stop-color:#554444"/>
				</linearGradient>
				<path style="fill:url(#SVGID_00000140713594741780882710000006163442900335827356_);" d="M317.2,163.7v-67h52.7l18.2,17.4v32.1
					l-18.2,17.3C369.9,163.7,317.2,163.7,317.2,163.7z M364.5,141v-21.5h-23.6V141H364.5z"/>
				<path class="st3" d="M368.7,99.9l16.4,15.7v29.5l-16.4,15.5h-48.2V99.9H368.7 M337.7,144.1h30v-27.9h-30V144.1 M371.2,93.6h-2.5
					h-48.2h-6.4v6.4v60.7v6.3h6.4h48.2h2.5l1.9-1.8l16.4-15.5l2-1.9V145v-29.4v-2.7l-2-1.9l-16.4-15.7L371.2,93.6L371.2,93.6z
					 M344.1,122.6h17.2v15.1h-17.2V122.6L344.1,122.6z"/>
			</g>
			<g>
				
					<linearGradient id="SVGID_00000173879077371219668090000011827803312336200893_" gradientUnits="userSpaceOnUse" x1="281.2" y1="-813.7" x2="281.2" y2="-910.0704" gradientTransform="matrix(1 0 0 -1 0 -717)">
					<stop  offset="0" style="stop-color:#DDDDDD"/>
					<stop  offset="0.75" style="stop-color:#554C4C"/>
					<stop  offset="1" style="stop-color:#554444"/>
				</linearGradient>
				<polygon style="fill:url(#SVGID_00000173879077371219668090000011827803312336200893_);" points="246.1,146.7 246.1,114.3 
					264.5,96.9 316.3,96.7 302.5,119.7 272,119.7 272,120.1 297.3,120.1 297.3,140.7 272,140.7 272,141.4 302.3,141.4 316.3,163.9 
					264.5,164.1 				"/>
				<path class="st3" d="M310.6,99.9l-10,16.6h-31.7v6.8h25.3v14.3h-25.3v7h31.6l10,16.2l-44.9,0.2l-16.3-15.8v-29.5l16.4-15.6
					L310.6,99.9 M321.9,93.5h-11.3l-44.9,0.2h-2.5l-1.9,1.8l-16.4,15.7l-2,1.9v2.7v29.5v2.7l2,1.9l16.4,15.6l1.9,1.8h2.5l44.9-0.2
					H322l-6-9.7l-10-16.2l-1.9-3h-3.5l0,0v-0.7v-14.3v-0.4h0.1h3.6l1.9-3.1l10-16.6L321.9,93.5L321.9,93.5z"/>
			</g>
			<g>
				
					<linearGradient id="SVGID_00000001646530889003513840000005976576075986309050_" gradientUnits="userSpaceOnUse" x1="281.5" y1="-793.8404" x2="281.5" y2="-822.5538" gradientTransform="matrix(1 0 0 -1 0 -717)">
					<stop  offset="0" style="stop-color:#DDDDDD"/>
					<stop  offset="0.75" style="stop-color:#554C4C"/>
					<stop  offset="1" style="stop-color:#554444"/>
				</linearGradient>
				<polygon style="fill:url(#SVGID_00000001646530889003513840000005976576075986309050_);" points="265.9,82.5 297.1,76.9 
					297.1,92.9 265.9,97 				"/>
				<path class="st3" d="M293.9,80.6V90l-24.8,3.3v-8.2L293.9,80.6 M300.3,73.1l-7.5,1.3l-24.9,4.5l-5.3,1v5.3v8.2v7.2l7.1-0.9
					l24.9-3.2l5.6-0.8V90v-9.4L300.3,73.1L300.3,73.1z"/>
			</g>
			<g>
				
					<linearGradient id="SVGID_00000181779244459949602470000017541262594945478587_" gradientUnits="userSpaceOnUse" x1="212" y1="-813.7" x2="212" y2="-910.2704" gradientTransform="matrix(1 0 0 -1 0 -717)">
					<stop  offset="0" style="stop-color:#DDDDDD"/>
					<stop  offset="0.75" style="stop-color:#554C4C"/>
					<stop  offset="1" style="stop-color:#554444"/>
				</linearGradient>
				<polygon style="fill:url(#SVGID_00000181779244459949602470000017541262594945478587_);" points="217,164.2 198.8,142.7 
					198.8,164.2 175,164.2 175,96.7 198.8,96.7 198.8,115.4 215.4,96.7 247.9,96.7 218,128.7 249,164.2 				"/>
				<path class="st3" d="M195.6,99.9v20.3h3.3l17.9-20.3h23.7l-26.8,28.6l28.2,32.5h-23.5l-18.9-22.4h-4V161H178V99.9H195.6
					 M202,93.6h-6.4h-17.5h-6.4v6.4v61v6.4h6.4h17.5h6.4V161v-9.7l11.6,13.7l1.9,2.3h3H242h13.9l-9.1-10.5l-24.5-28.2l23-24.4
					l10-10.7h-14.7h-23.8h-2.9l-1.9,2.2L202,107v-7.1V93.6L202,93.6z"/>
			</g>
			<g>
				
					<linearGradient id="SVGID_00000155861932160895901550000018268478380434262921_" gradientUnits="userSpaceOnUse" x1="44.1" y1="-813.9" x2="44.1" y2="-909.9753" gradientTransform="matrix(1 0 0 -1 0 -717)">
					<stop  offset="0" style="stop-color:#DDDDDD"/>
					<stop  offset="0.75" style="stop-color:#554C4C"/>
					<stop  offset="1" style="stop-color:#554444"/>
				</linearGradient>
				<path style="fill:url(#SVGID_00000155861932160895901550000018268478380434262921_);" d="M9.9,164V96.9h49.4l19,17.8v17.1
					l-18,16.7H33.1V164H9.9z M55.1,127.5l-0.1-9.2H33v9.2H55.1z"/>
				<path class="st3" d="M58.1,99.9l17.1,16v14.6l-16.1,14.8h-29v15.6H12.8v-61h6.6h10.7h22L58.1,99.9 M30.1,130.4h28.1l-0.1-15.2
					h-6h-22L30.1,130.4 M60.4,93.9H58h-6H30H19.3h-6.6H6.8v6V161v6h6H30h6v-6v-9.5h23.1h2.3l1.8-1.6L79.3,135l2-1.8v-2.6V116v-2.6
					l-1.9-1.8L62.2,95.4L60.4,93.9L60.4,93.9z M36.1,121.2H52l0,0v3.2H36.1V121.2L36.1,121.2z"/>
			</g>
			<g>
				<ellipse class="st3" cx="126.5" cy="130.4" rx="39.4" ry="39.6"/>
				<path class="st3" d="M126.5,94c20,0,36.2,16.3,36.2,36.4s-16.3,36.4-36.2,36.4s-36.2-16.3-36.2-36.4
					C90.3,110.2,106.4,94,126.5,94 M126.5,87.6c-23.5,0-42.6,19.2-42.6,42.8s19.1,42.8,42.6,42.8s42.6-19.2,42.6-42.8
					S149.9,87.6,126.5,87.6L126.5,87.6z"/>
			</g>
			<g>
				<ellipse class="st3" cx="126.5" cy="130.4" rx="10.1" ry="10.2"/>
				<path d="M126.5,141.4c-6,0-10.9-4.9-10.9-11s4.9-11,10.9-11s10.9,4.9,10.9,11C137.4,136.5,132.5,141.4,126.5,141.4z M126.5,121
					c-5.1,0-9.3,4.2-9.3,9.4s4.2,9.4,9.3,9.4s9.3-4.2,9.3-9.4S131.6,121,126.5,121z"/>
			</g>
			<g>
				
					<linearGradient id="SVGID_00000019677404693247487910000013838250197643560864_" gradientUnits="userSpaceOnUse" x1="122.95" y1="-789.0944" x2="122.95" y2="-861.8627" gradientTransform="matrix(1 0 0 -1 0 -717)">
					<stop  offset="0" style="stop-color:#CC0000"/>
					<stop  offset="1" style="stop-color:#881100"/>
				</linearGradient>
				<path style="fill:url(#SVGID_00000019677404693247487910000013838250197643560864_);" d="M108.3,130.4
					c0-10.1,8.1-18.2,18.2-18.2c5.3,0,9.9,2.2,13.3,5.8l15.8-9.2c-6.6-8.9-17.1-14.7-29.1-14.7c-20,0-36.2,16.3-36.2,36.4
					c0,5.2,1.1,10.1,3,14.5l15.8-9.2C108.5,134,108.3,132.2,108.3,130.4z"/>
				<path d="M92.9,146.1l-0.4-0.8c-2-4.7-3.1-9.7-3.1-14.8c0-20.5,16.6-37.2,37-37.2c11.8,0,22.7,5.5,29.7,15l0.5,0.7l-17.1,10
					l-0.4-0.5c-3.4-3.6-7.8-5.5-12.7-5.5c-9.6,0-17.4,7.8-17.4,17.4c0,1.9,0.2,3.6,0.8,5.1l0.2,0.6L92.9,146.1z M126.5,94.9
					c-19.5,0-35.4,16-35.4,35.6c0,4.6,0.9,9.1,2.6,13.3l14.5-8.4c-0.4-1.5-0.6-3.2-0.6-5c0-10.5,8.5-19,19-19c5.1,0,9.8,2,13.4,5.6
					l14.5-8.4C147.6,99.9,137.5,94.9,126.5,94.9z"/>
			</g>
			<g>
				
					<linearGradient id="SVGID_00000102509954390613670610000006337260545491439244_" gradientUnits="userSpaceOnUse" x1="130.05" y1="-832.8921" x2="130.05" y2="-905.6604" gradientTransform="matrix(1 0 0 -1 0 -717)">
					<stop  offset="0.15" style="stop-color:#DDDDDD"/>
					<stop  offset="0.9" style="stop-color:#554C4C"/>
					<stop  offset="1" style="stop-color:#554444"/>
				</linearGradient>
				<path style="fill:url(#SVGID_00000102509954390613670610000006337260545491439244_);" d="M143.9,125c0.5,1.6,0.8,3.5,0.8,5.3
					c0,10.1-8.1,18.2-18.2,18.2c-5.3,0-9.9-2.2-13.3-5.8l-15.8,9.2c6.6,8.9,17.1,14.7,29.1,14.7c20,0,36.2-16.3,36.2-36.4
					c0-5.2-1.1-10.1-3-14.5L143.9,125z"/>
				<path d="M126.5,167.4c-11.8,0-22.7-5.5-29.7-15l-0.5-0.7l17.1-10l0.4,0.5c3.4,3.6,7.8,5.5,12.7,5.5c9.6,0,17.4-7.8,17.4-17.4
					c0-1.7-0.3-3.5-0.8-5.1l-0.2-0.6l17.1-10.1l0.4,0.8c2,4.7,3.1,9.7,3.1,14.8C163.5,150.7,146.9,167.4,126.5,167.4z M98.6,152.1
					c6.8,8.7,16.9,13.7,27.9,13.7c19.5,0,35.4-16,35.4-35.6c0-4.6-0.9-9.1-2.6-13.3l-14.5,8.5c0.4,1.6,0.7,3.3,0.7,4.9
					c0,10.5-8.5,19-19,19c-5.1,0-9.8-2-13.4-5.6L98.6,152.1z"/>
			</g>
			<g>
				<path d="M30.8,161.8H12V99.1h46.4L76,115.6v15.2l-16.6,15.3H30.8V161.8z M13.6,160.2h15.6v-15.7h29.6l15.6-14.4v-13.8
					l-16.6-15.5H13.6V160.2z M59,131.2H29.3v-16.8h29.6L59,131.2z M30.9,129.6h26.5L57.3,116H30.9V129.6z"/>
			</g>
			<g>
				
					<linearGradient id="SVGID_00000145036627191984003440000015888624438828518056_" gradientUnits="userSpaceOnUse" x1="37.121" y1="578.3351" x2="51.0688" y2="578.3351" gradientTransform="matrix(1 0 0 89851.4844 0 -51964144)">
					<stop  offset="0" style="stop-color:#DDDDDD"/>
					<stop  offset="1" style="stop-color:#666655"/>
				</linearGradient>
				
					<rect x="37.1" y="122.1" style="fill:url(#SVGID_00000145036627191984003440000015888624438828518056_);" width="13.9" height="1.4"/>
				<rect x="36.1" y="121.1" width="15.9" height="3.4"/>
			</g>
			<g>
				<path d="M243.7,161.8H218l-18.8-22.4h-2.8v22.4h-19.1V99.1h19.1v20.2h2.1l17.9-20.2h25.9l-27.6,29.5L243.7,161.8z M218.8,160.2
					h21.4l-27.5-31.6l26-27.9h-21.5l-17.9,20.2h-4.5v-20.2h-15.9v59.5h15.9v-22.4h5.2L218.8,160.2z"/>
			</g>
			<g>
				<path d="M265.4,161.7l-16.9-16.2v-30.2l16.9-16.2L312,99l-11,18.2h-31.4v5.2h25.2v15.9h-25.2v5.4H301l11,17.7L265.4,161.7z
					 M250.1,144.9l15.9,15.2l43.1-0.2l-9-14.5H268v-8.6h25.2v-12.7H268v-8.4h32l9-15l-43.2,0.1L250.1,116V144.9z"/>
			</g>
			<g>
				<path d="M409.9,161.7L393,145.5v-30.2l16.9-16.2l46.5-0.1l-10.9,18.2h-31.4v5.2h25.2v15.9h-25.2v5.4h31.2l11,17.7L409.9,161.7z
					 M394.6,144.9l15.9,15.2l43-0.2l-9-14.5h-32v-8.6h25.2v-12.7h-25.2v-8.4h32l8.9-15l-43.1,0.1L394.6,116V144.9z"/>
			</g>
			<g>
				<path d="M268.3,94.2v-9.8l26.4-4.8v11.2L268.3,94.2z M269.9,85.8v6.6l23.2-3v-7.8L269.9,85.8z"/>
			</g>
			<g>
				<path d="M369,161.4h-49.3V99.1H369l16.9,16.2v30.2L369,161.4z M321.3,159.8h47.1l15.9-15V116l-15.9-15.2h-47.1V159.8z
					 M368.5,144.9h-31.6v-29.5h31.6V144.9z M338.5,143.3h28.4V117h-28.4V143.3z"/>
			</g>
			<g>
				<rect x="344" y="123.2" width="17.4" height="14.5"/>
				<path d="M362.2,138.5h-19v-16.1h19V138.5z M344.8,136.9h15.8V124h-15.8V136.9z"/>
			</g>
			<g>
				
					<linearGradient id="SVGID_00000173872534382216769890000004592521884251061912_" gradientUnits="userSpaceOnUse" x1="497.9" y1="-816.9" x2="497.9" y2="-904.3442" gradientTransform="matrix(1 0 0 -1 0 -717)">
					<stop  offset="0" style="stop-color:#DDDDDD"/>
					<stop  offset="0.75" style="stop-color:#554C4C"/>
					<stop  offset="1" style="stop-color:#554444"/>
				</linearGradient>
				<polygon style="fill:url(#SVGID_00000173872534382216769890000004592521884251061912_);" points="533.3,99.9 509.9,99.9 
					498.1,115.3 486,99.9 462.6,99.9 486.4,130.5 462.5,161 485.8,161 498.1,145.6 510.1,161 532.7,161 509.7,130.4 				"/>
				<path d="M534.3,161.8h-24.6l-11.6-14.9l-11.9,14.9h-25.3l24.5-31.3L461,99.1h25.4l11.7,14.9l11.4-14.9h25.4l-24.2,31.3
					L534.3,161.8z M510.5,160.2h20.6l-22.4-29.8l23-29.7h-21.4l-12.2,15.9l-12.5-15.9h-21.4l23.2,29.8l-23.3,29.7h21.3l12.7-15.9
					L510.5,160.2z"/>
			</g>
		</g>
	</g>
</g>
<g class="st15">
	<path d="M543.2,153l-16.9-22.5l17.4-22.5l7.9-10.3l8.5-11h-13.8h-13h-23.3h-3.2h-3.3l-2.1,2.6l-1.9,2.5l-1.5,2l-1.6-2.1l-1.9-2.4
		l-2.1-2.6H489h-3.1h-7.6h-12.1h-11.3h-5.5h-13.9l0.1,0.1h-1.8V38.7c0-21.3-17.4-38.7-38.8-38.7H164.7c-21.4,0-38.8,17.4-38.8,38.7
		v42c-18.2,0.2-34,10.4-42.4,25.3L66.7,90.4l-1.8-1.7l-2-1.9h-2.6h-2.4h-6h-22H19.2h-6.6H6.7h-6.8v6.8v6.3V161v6v6.8h6.8h6h17.2h6
		h6.8V167v-6v-2.7H59h2.3h2.6l2-1.9l1.8-1.6l11.2-10.3c6,20.5,25,35.5,47.3,35.5c15.6,0,29.4-7.2,38.4-18.5v6v6.8h6.8h6.4h17.5h6.4
		h6.8v-4.2l1.5,1.8l2.1,2.4h3.2h3h23.5h14.1h14.9l-0.1-0.2l39.8-0.1h11.4h12.2l-0.1-0.1h34.5h2.5h2.7l2-1.9l1.9-1.8l11.5-11
		l11.9,11.3l1.9,1.8l2,1.9h2.7h2.5l25.4-0.1l-0.2,0.2h14.1h13.1h23.3h3.1h3.3l2.1-2.5l1.9-2.4l1.9-2.4l1.8,2.3l1.9,2.4l2.1,2.6h3.3
		h3.1h22.6h12.7h13.3l-8.2-11L543.2,153z M451.7,131.5v-1.6h0.7l2-3.3l1.9-3.1l3.4-5.6l9.9,12.6l-9.9,12.7l-3.5-5.6l-1.9-3l-2-3.2
		h-0.6V131.5z"/>
</g>
</svg>
