<?xml version="1.0" encoding="utf-8"?>
<!-- Generator: Adobe Illustrator 26.0.0, SVG Export Plug-In . SVG Version: 6.00 Build 0)  -->
<svg version="1.1" id="Layer_1" xmlns="http://www.w3.org/2000/svg" xmlns:xlink="http://www.w3.org/1999/xlink" x="0px" y="0px"
	 viewBox="0 0 560 180" style="enable-background:new 0 0 560 180;" xml:space="preserve">
<style type="text/css">
	.st0{fill:#FFFFFF;}
	.st1{fill:url(#SVGID_1_);}
	.st2{fill:url(#SVGID_00000013154874923812896210000014353587326687107229_);}
	.st3{fill:url(#SVGID_00000160885076154615958460000001617494552922716810_);}
	.st4{fill:url(#SVGID_00000141446898879228919630000001930076585253446333_);}
	.st5{fill:url(#SVGID_00000162350845627298268760000014323842857979447216_);}
</style>
<g>
	<circle class="st0" cx="126.6" cy="130.4" r="42"/>
	<g>
		
			<linearGradient id="SVGID_1_" gradientUnits="userSpaceOnUse" x1="126.6" y1="1993.2402" x2="126.6" y2="2013.5586" gradientTransform="matrix(1 0 0 1 0 -1873)">
			<stop  offset="0" style="stop-color:#DDDDDD"/>
			<stop  offset="1" style="stop-color:#666655"/>
		</linearGradient>
		<ellipse class="st1" cx="126.6" cy="130.4" rx="10.1" ry="10.2"/>
		<path d="M126.6,141.4c-6,0-10.9-4.9-10.9-11s4.9-11,10.9-11c6,0,10.9,4.9,10.9,11C137.5,136.5,132.6,141.4,126.6,141.4z
			 M126.6,121c-5.1,0-9.3,4.2-9.3,9.4s4.2,9.4,9.3,9.4c5.1,0,9.3-4.2,9.3-9.4S131.7,121,126.6,121z"/>
	</g>
	<g>
		
			<linearGradient id="SVGID_00000171685448605618997770000011703253585824613515_" gradientUnits="userSpaceOnUse" x1="123.05" y1="1945.0851" x2="123.05" y2="2017.8988" gradientTransform="matrix(1 0 0 1 0 -1873)">
			<stop  offset="0" style="stop-color:#CC0000"/>
			<stop  offset="1" style="stop-color:#881100"/>
		</linearGradient>
		<path style="fill:url(#SVGID_00000171685448605618997770000011703253585824613515_);" d="M108.4,130.4c0-10.1,8.1-18.2,18.2-18.2
			c5.3,0,9.9,2.2,13.3,5.8l15.8-9.2c-6.6-8.9-17.1-14.7-29.1-14.7c-20,0-36.2,16.4-36.2,36.4c0,5.2,1.1,10.1,3,14.5l15.8-9.2
			C108.6,134.1,108.4,132.2,108.4,130.4z"/>
		<path d="M93,146.1l-0.4-0.8c-2-4.7-3.1-9.7-3.1-14.8c0-20.5,16.6-37.2,37-37.2c11.8,0,22.7,5.5,29.7,15l0.5,0.7l-17.1,10l-0.4-0.5
			c-3.4-3.6-7.8-5.5-12.7-5.5c-9.6,0-17.4,7.8-17.4,17.4c0,2,0.3,3.7,0.8,5.1l0.2,0.6L93,146.1z M126.6,94.9
			c-19.5,0-35.4,16-35.4,35.6c0,4.6,0.9,9.1,2.6,13.3l14.5-8.4c-0.4-1.5-0.6-3.1-0.6-5c0-10.5,8.5-19,19-19c5.1,0,9.8,2,13.4,5.6
			l14.5-8.4C147.7,99.9,137.6,94.9,126.6,94.9z"/>
	</g>
	<g>
		
			<linearGradient id="SVGID_00000049940871132749748450000014951323254039258003_" gradientUnits="userSpaceOnUse" x1="130.05" y1="1988.9102" x2="130.05" y2="2061.7239" gradientTransform="matrix(1 0 0 1 0 -1873)">
			<stop  offset="0" style="stop-color:#DDDDDD"/>
			<stop  offset="1" style="stop-color:#666655"/>
		</linearGradient>
		<path style="fill:url(#SVGID_00000049940871132749748450000014951323254039258003_);" d="M143.9,125.1c0.5,1.6,0.8,3.5,0.8,5.3
			c0,10.1-8.1,18.2-18.2,18.2c-5.3,0-9.9-2.2-13.3-5.8L97.4,152c6.6,8.9,17.1,14.7,29.1,14.7c20,0,36.2-16.4,36.2-36.4
			c0-5.2-1.1-10.1-3-14.5L143.9,125.1z"/>
		<path d="M126.5,167.5c-11.8,0-22.7-5.5-29.7-15l-0.5-0.7l17.1-10l0.4,0.5c3.4,3.6,7.8,5.5,12.7,5.5c9.6,0,17.4-7.8,17.4-17.4
			c0-1.7-0.3-3.5-0.8-5.1l-0.2-0.6l17.1-10.1l0.4,0.8c2,4.7,3.1,9.7,3.1,14.8C163.5,150.8,146.9,167.5,126.5,167.5z M98.6,152.2
			c6.8,8.7,16.9,13.7,27.9,13.7c19.5,0,35.4-16,35.4-35.6c0-4.6-0.9-9.1-2.6-13.3l-14.5,8.5c0.4,1.6,0.7,3.3,0.7,4.9
			c0,10.5-8.5,19-19,19c-5.1,0-9.8-2-13.4-5.6L98.6,152.2z"/>
	</g>
	<g>
		<ellipse class="st0" cx="126.6" cy="130.4" rx="10.1" ry="10.2"/>
		<path d="M126.6,141.4c-6,0-10.9-4.9-10.9-11s4.9-11,10.9-11c6,0,10.9,4.9,10.9,11C137.5,136.5,132.6,141.4,126.6,141.4z
			 M126.6,121c-5.1,0-9.3,4.2-9.3,9.4s4.2,9.4,9.3,9.4c5.1,0,9.3-4.2,9.3-9.4S131.7,121,126.6,121z"/>
	</g>
	<g>
		
			<linearGradient id="SVGID_00000083064132115669011710000015181728262946490010_" gradientUnits="userSpaceOnUse" x1="123.05" y1="1945.0851" x2="123.05" y2="2017.8988" gradientTransform="matrix(1 0 0 1 0 -1873)">
			<stop  offset="0" style="stop-color:#EE3333"/>
			<stop  offset="1" style="stop-color:#990000"/>
		</linearGradient>
		<path style="fill:url(#SVGID_00000083064132115669011710000015181728262946490010_);" d="M108.4,130.4c0-10.1,8.1-18.2,18.2-18.2
			c5.3,0,9.9,2.2,13.3,5.8l15.8-9.2c-6.6-8.9-17.1-14.7-29.1-14.7c-20,0-36.2,16.4-36.2,36.4c0,5.2,1.1,10.1,3,14.5l15.8-9.2
			C108.6,134.1,108.4,132.2,108.4,130.4z"/>
		<path d="M93,146.1l-0.4-0.8c-2-4.7-3.1-9.7-3.1-14.8c0-20.5,16.6-37.2,37-37.2c11.8,0,22.7,5.5,29.7,15l0.5,0.7l-17.1,10l-0.4-0.5
			c-3.4-3.6-7.8-5.5-12.7-5.5c-9.6,0-17.4,7.8-17.4,17.4c0,2,0.3,3.7,0.8,5.1l0.2,0.6L93,146.1z M126.6,94.9
			c-19.5,0-35.4,16-35.4,35.6c0,4.6,0.9,9.1,2.6,13.3l14.5-8.4c-0.4-1.5-0.6-3.1-0.6-5c0-10.5,8.5-19,19-19c5.1,0,9.8,2,13.4,5.6
			l14.5-8.4C147.7,99.9,137.6,94.9,126.6,94.9z"/>
	</g>
	<g>
		
			<linearGradient id="SVGID_00000064347763639207368340000010690887003800621707_" gradientUnits="userSpaceOnUse" x1="130.05" y1="115.8" x2="130.05" y2="166.7">
			<stop  offset="0.15" style="stop-color:#DDDDDD"/>
			<stop  offset="0.9" style="stop-color:#554C4C"/>
			<stop  offset="1" style="stop-color:#554444"/>
		</linearGradient>
		<path style="fill:url(#SVGID_00000064347763639207368340000010690887003800621707_);" d="M143.9,125.1c0.5,1.6,0.8,3.5,0.8,5.3
			c0,10.1-8.1,18.2-18.2,18.2c-5.3,0-9.9-2.2-13.3-5.8L97.4,152c6.6,8.9,17.1,14.7,29.1,14.7c20,0,36.2-16.4,36.2-36.4
			c0-5.2-1.1-10.1-3-14.5L143.9,125.1z"/>
		<path d="M126.5,167.5c-11.8,0-22.7-5.5-29.7-15l-0.5-0.7l17.1-10l0.4,0.5c3.4,3.6,7.8,5.5,12.7,5.5c9.6,0,17.4-7.8,17.4-17.4
			c0-1.7-0.3-3.5-0.8-5.1l-0.2-0.6l17.1-10.1l0.4,0.8c2,4.7,3.1,9.7,3.1,14.8C163.5,150.8,146.9,167.5,126.5,167.5z M98.6,152.2
			c6.8,8.7,16.9,13.7,27.9,13.7c19.5,0,35.4-16,35.4-35.6c0-4.6-0.9-9.1-2.6-13.3l-14.5,8.5c0.4,1.6,0.7,3.3,0.7,4.9
			c0,10.5-8.5,19-19,19c-5.1,0-9.8-2-13.4-5.6L98.6,152.2z"/>
	</g>
</g>
</svg>
