<?xml version="1.0" encoding="utf-8"?>
<!-- Generator: Adobe Illustrator 26.0.0, SVG Export Plug-In . SVG Version: 6.00 Build 0)  -->
<svg version="1.1" xmlns="http://www.w3.org/2000/svg" xmlns:xlink="http://www.w3.org/1999/xlink" x="0px" y="0px"
	 viewBox="0 0 300 177.8" style="enable-background:new 0 0 300 177.8;" xml:space="preserve">
<style type="text/css">
	.st0{fill:#0D1330;}
	.st1{fill:none;}
	.st2{fill:#1B1F4F;}
	.st3{fill:#FFFFFF;}
	.st4{fill:#29377D;}
	.st5{fill:#CAC9CC;}
	.st6{fill:#D53931;}
	.st7{fill:#28367B;}
	.st8{fill:url(#XMLID_00000088844446773117136430000004087809868630375082_);}
	.st9{fill:#0071B9;}
	.st10{fill:url(#XMLID_00000116919441415936318720000000173231526229650867_);}
	.st11{fill:#1D2C5E;}
	.st12{fill:url(#XMLID_00000112620638708022542390000016149460020367075736_);}
	.st13{fill:url(#XMLID_00000088837230597821298280000007065954592392304037_);}
	.st14{fill:#312370;}
	.st15{fill:#21386E;}
	.st16{fill:url(#XMLID_00000107547043315985856260000015319243185590107288_);}
	.st17{fill:url(#XMLID_00000037659504831140729020000011255316357758237631_);}
	.st18{fill:url(#XMLID_00000118375559364971636900000011193445738437355440_);}
	.st19{fill:#FFCB05;}
	.st20{fill:#7D7F68;}
	.st21{fill:#C7A008;}
	.st22{fill:#3C5AA6;}
	.st23{fill:#3567B0;}
	.st24{fill:#1E2D5F;}
	.st25{fill:#3466AF;}
	.st26{fill:url(#XMLID_00000106861222828084593890000004143365395604832914_);}
	.st27{fill:url(#XMLID_00000093173247131363334370000014042042843761905076_);}
	.st28{opacity:0.25;}
</style>
<g id="Layer_1">
	<g id="XMLID_332_">
		<g id="XMLID_333_">
			<path class="st0" d="M187,101c-17.7,0-32.6,12-37,28.3c-0.2-0.7-0.4-1.4-0.6-2h-15.2l10.5-9.4c-6.9-10.2-18.6-16.9-31.8-16.9
				c-21.2,0-38.4,17.2-38.4,38.4s17.2,38.4,38.4,38.4c17.7,0,32.6-12,37-28.3c4.4,16.3,19.3,28.3,37,28.3
				c21.2,0,38.4-17.2,38.4-38.4C225.4,118.2,208.3,101,187,101z"/>
		</g>
	</g>
	<path id="XMLID_331_" class="st1" d="M161.5,118.4c-4.4,5.3-7.2,12.1-7.5,19.4c0,0,0,0,0.1,0C154.4,130.5,157.1,123.7,161.5,118.4z
		"/>
	<path id="XMLID_330_" class="st1" d="M153.9,138.1L153.9,138.1v1.1V138.1z"/>
	<path id="XMLID_329_" class="st1" d="M80,139.6c0-8,2.9-15.4,7.7-21.2C82.8,124.2,79.9,131.6,80,139.6c-0.1,1.5,0,2.9,0.2,4.3
		c0,0,0,0,0.1,0C80.1,142.5,80,141,80,139.6z"/>
	<path id="XMLID_328_" class="st1" d="M113.7,123.7c-5.1,0-9.6,2.3-12.6,5.9C104.1,126,108.6,123.8,113.7,123.7
		c4.6,0.1,9.1,2.1,12.2,5.5l13.1-11.6l0,0l-13,11.6C122.8,125.7,118.4,123.7,113.7,123.7z"/>
	<path id="XMLID_327_" class="st1" d="M113.7,173C98,173,84.8,162.3,81,147.9h-0.1C84.7,162.4,97.9,173.1,113.7,173
		c10.4,0.1,19.8-4.7,26-12.1C133.5,168.3,124.2,173,113.7,173z"/>
	<path id="XMLID_326_" class="st1" d="M113,131.4L113,131.4l-0.1,8.3c0,0,0,0,0.1,0V131.4z"/>
	<path id="XMLID_325_" class="st1" d="M187,172.5c-17.4,0-31.7-13.5-33-30.5c0,0,0,0-0.1,0C155.3,159.1,169.5,172.6,187,172.5
		c10.2,0.1,19.4-4.6,25.5-12C206.5,167.8,197.3,172.5,187,172.5z"/>
	<path id="XMLID_324_" class="st1" d="M154,139.2L154,139.2C153.9,139.2,153.9,139.2,154,139.2C153.9,139.2,153.9,139.2,154,139.2
		C153.9,139.2,154,139.2,154,139.2L154,139.2z"/>
	<path id="XMLID_323_" class="st1" d="M113,146.4v-2.5c0,0,0,0-0.1,0L113,146.4l15.3,0.1c-0.6,1.2-1.3,2.2-2.1,3.2
		c0.8-1,1.6-2.1,2.1-3.3H113z"/>
	<path id="XMLID_322_" class="st0" d="M207.6,143.2c0.9,0.2,1.9,0.3,2.8,0.5C209.5,143.5,208.5,143.3,207.6,143.2z"/>
	<path id="XMLID_321_" class="st0" d="M202.9,142.5L202.9,142.5c0.4,0.1,0.8,0.1,1.1,0.2C203.7,142.6,203.3,142.5,202.9,142.5z"/>
	<path id="XMLID_320_" class="st0" d="M211.1,143.8c0.9,0.2,1.9,0.3,2.8,0.5C213,144.1,212,144,211.1,143.8z"/>
	<path id="XMLID_319_" class="st0" d="M204.7,142.7c0.9,0.1,1.9,0.3,2.8,0.4C206.6,143,205.7,142.9,204.7,142.7z"/>
	<path id="XMLID_318_" class="st0" d="M167.1,139.4c1.3,0,2.6,0.1,3.9,0.2l0,0C169.7,139.5,168.4,139.5,167.1,139.4z"/>
	<path id="XMLID_317_" class="st0" d="M203.8,144c0.2,0,0.5,0.1,0.7,0.1C204.3,144.1,204.1,144,203.8,144z"/>
	<path id="XMLID_316_" class="st0" d="M213.9,144.3c0.9,0.2,1.9,0.4,2.8,0.5C215.8,144.7,214.9,144.5,213.9,144.3z"/>
	<path id="XMLID_315_" class="st0" d="M161,140.6c-0.2,0-0.4,0-0.6,0C160.6,140.6,160.8,140.6,161,140.6z"/>
	<path id="XMLID_314_" class="st0" d="M167,140.8c-0.2,0-0.4,0-0.7,0C166.6,140.8,166.8,140.8,167,140.8z"/>
	<path id="XMLID_313_" class="st0" d="M169.7,140.9L169.7,140.9L169.7,140.9z"/>
	<path id="XMLID_312_" class="st0" d="M207.3,144.5L207.3,144.5L207.3,144.5z"/>
	<path id="XMLID_311_" class="st0" d="M160.4,139.3c-1.8,0-3.5,0-5.3,0C156.9,139.2,158.7,139.2,160.4,139.3z"/>
	<path id="XMLID_310_" class="st0" d="M166.4,139.4c-1.8-0.1-3.6-0.1-5.4-0.1C162.8,139.3,164.6,139.3,166.4,139.4z"/>
	<path id="XMLID_309_" class="st0" d="M157.8,140.6C157.8,140.6,157.7,140.6,157.8,140.6C157.7,140.6,157.8,140.6,157.8,140.6z"/>
	<path id="XMLID_308_" class="st0" d="M154.6,140.6c0.2,0,0.4,0,0.6,0C155,140.6,154.8,140.6,154.6,140.6z"/>
	<path id="XMLID_307_" class="st0" d="M163.7,140.7L163.7,140.7L163.7,140.7z"/>
	<path id="XMLID_306_" class="st0" d="M216.4,146.2c0.2,0,0.5,0.1,0.7,0.1C216.9,146.3,216.7,146.3,216.4,146.2z"/>
	<path id="XMLID_305_" class="st2" d="M202.1,145.1c-2.3,6-8.2,10.3-15,10.3c-7.9,0-14.4-5.7-15.8-13.1c-5.6-0.2-11.3-0.4-17.2-0.4
		c1.3,17.1,15.6,30.5,33,30.5c10.3,0,19.4-4.7,25.5-12c2.9-3.6,5.1-7.8,6.4-12.4C213.5,147,207.9,146,202.1,145.1z"/>
	<path id="XMLID_304_" class="st0" d="M154,139.2L154,139.2c0.2,0,0.4,0,0.6,0C154.4,139.2,154.2,139.2,154,139.2z"/>
	<path id="XMLID_303_" class="st0" d="M219.5,145.5L219.5,145.5c-0.7-0.2-1.4-0.3-2.1-0.4C218.1,145.2,218.8,145.3,219.5,145.5z"/>
	<path id="XMLID_302_" class="st0" d="M187,106.4c18.3,0,33.1,14.8,33.1,33.1c0,1.6-0.1,3.1-0.3,4.6c-0.1,0.5-0.1,0.9-0.2,1.4l0,0
		c-0.1,0.5-0.2,0.9-0.3,1.3l0,0c-0.1,0.4-0.2,0.9-0.3,1.3c-1.2,4.6-3.4,8.8-6.4,12.4c4.7-5.7,7.6-13.1,7.6-21.1
		C220.1,121.1,205.3,106.3,187,106.4c-10.2-0.1-19.4,4.6-25.5,12C167.6,111.1,176.7,106.4,187,106.4z"/>
	<path id="XMLID_301_" class="st0" d="M171.1,138.2c0.6-8.3,7.6-14.9,16-14.9c8.9,0,16.1,7.2,16.1,16.1c0,0.6,0,1.2-0.1,1.7
		c5.8,0.8,11.3,1.8,16.6,3c0.2-1.5,0.3-3,0.3-4.6c0-18.3-14.8-33.1-33.1-33.1c-10.3,0-19.4,4.7-25.5,12c-4.4,5.3-7.1,12.1-7.5,19.4
		C159.8,137.8,165.5,138,171.1,138.2z"/>
	<path id="XMLID_300_" class="st0" d="M171,139.6L171,139.6c0,0.5,0,0.9,0.1,1.4l0,0c0,0.5,0.1,0.9,0.2,1.4
		c1.4,7.5,7.9,13.1,15.8,13.1c6.9,0,12.7-4.3,15-10.3c0.2-0.4,0.3-0.9,0.4-1.3l0,0c0.1-0.4,0.2-0.9,0.3-1.3l0,0
		c0.1-0.4,0.2-0.9,0.2-1.4c0.1-0.6,0.1-1.2,0.1-1.7c0-8.9-7.2-16.1-16.1-16.1c-8.5,0-15.4,6.6-16,14.9c0,0.4,0,0.8,0,1.2
		C171,139.4,171,139.5,171,139.6z"/>
	<path id="XMLID_299_" class="st0" d="M210.1,145c0.2,0,0.5,0.1,0.7,0.1C210.6,145.1,210.4,145.1,210.1,145z"/>
	<path id="XMLID_298_" class="st0" d="M135.7,139.6c-0.8,0-1.5,0.1-2.2,0.1C134.2,139.7,135,139.6,135.7,139.6z"/>
	<path id="XMLID_297_" class="st0" d="M130.7,139.8c-0.7,0-1.4,0.1-2.1,0.1C129.3,139.9,130,139.9,130.7,139.8z"/>
	<path id="XMLID_296_" class="st0" d="M132.9,139.7c-0.7,0-1.5,0.1-2.2,0.1C131.5,139.8,132.2,139.7,132.9,139.7z"/>
	<path id="XMLID_295_" class="st2" d="M113.6,155.6c-6.9,0-12.8-4.2-15.1-10.2c-9.8,1.2-16.2,2.3-17.5,2.5
		c3.7,14.4,17,25.1,32.7,25.1c10.4,0,19.8-4.7,26-12.1c4.3-5.2,7.1-11.7,7.6-18.9c-6.9,0.1-14,0.4-21.1,0.8c-4.7,0.3-9.1,0.6-13.2,1
		v2.5h15.4c-0.6,1.2-1.3,2.3-2.1,3.3C123.3,153.3,118.7,155.6,113.6,155.6z"/>
	<path id="XMLID_294_" class="st0" d="M138,139.5c-0.8,0-1.5,0.1-2.3,0.1C136.5,139.6,137.3,139.5,138,139.5z"/>
	<path id="XMLID_293_" class="st0" d="M97.5,141.4c0,0.5,0.1,0.9,0.2,1.4s0.2,0.9,0.3,1.3c0.1,0.5,0.3,0.9,0.5,1.3
		c2.3,6,8.2,10.2,15.1,10.2c5.1,0,9.6-2.3,12.6-5.9c-3,3.5-7.5,5.8-12.5,5.8c-8.9,0-16.2-7.1-16.2-15.9c0-3.8,1.4-7.3,3.7-10.1
		c-2.3,2.8-3.7,6.3-3.7,10.1C97.4,140.2,97.5,140.8,97.5,141.4z"/>
	<path id="XMLID_292_" class="st0" d="M113.6,106.3c9.7,0,18.9,4.1,25.3,11.3l0.1-0.1C132.6,110.3,123.4,106.2,113.6,106.3
		c-10.4-0.1-19.8,4.7-26,12.1C93.9,111,103.2,106.3,113.6,106.3z"/>
	<path id="XMLID_291_" class="st0" d="M146.5,131.4v0.7c0.4,1.9,0.7,3.8,0.8,5.8c0,0.5,0,0.9,0,1.4l0,0c0,0.1,0,0.3,0,0.4
		c0,0.3,0,0.6,0,1l0,0c0,0.5,0,0.9-0.1,1.4c-0.5,7.1-3.3,13.7-7.6,18.9c4.8-5.8,7.7-13.2,7.7-21.3c0-2.5-0.3-5.1-0.9-7.5
		L146.5,131.4l-0.4-0.1H113v0.1h33H146.5z"/>
	<path id="XMLID_290_" class="st0" d="M128.1,140c-0.7,0-1.4,0.1-2.1,0.1C126.7,140.1,127.4,140,128.1,140z"/>
	<path id="XMLID_289_" class="st0" d="M125.9,138.7c7.2-0.5,14.3-0.7,21.4-0.8c-0.1-1.9-0.4-3.9-0.8-5.8v-0.7H146h-33v8.3
		C117,139.3,121.4,139,125.9,138.7z"/>
	<path id="XMLID_288_" class="st0" d="M130.8,141.2L130.8,141.2L130.8,141.2z"/>
	<path id="XMLID_287_" class="st0" d="M128.7,141.3c-0.2,0-0.3,0-0.5,0C128.3,141.3,128.5,141.3,128.7,141.3z"/>
	<path id="XMLID_286_" class="st0" d="M133.5,141.1c-0.2,0-0.4,0-0.5,0C133.2,141.1,133.4,141.1,133.5,141.1z"/>
	<path id="XMLID_285_" class="st0" d="M144,140.7c-0.2,0-0.4,0-0.6,0C143.6,140.7,143.8,140.7,144,140.7z"/>
	<path id="XMLID_284_" class="st0" d="M80.3,143.9c1.2-0.2,7.5-1.3,17.2-2.5c-0.1-0.6-0.1-1.1-0.1-1.7c0-3.9,1.4-7.4,3.7-10.1
		c3-3.6,7.5-5.9,12.6-5.9c4.7,0,9.1,2,12.2,5.5l13-11.6c-6.4-7.2-15.6-11.3-25.3-11.3c-10.4,0-19.8,4.7-26,12.1
		c-4.8,5.8-7.7,13.2-7.7,21.2C80,141,80.1,142.5,80.3,143.9z"/>
	<path id="XMLID_283_" class="st0" d="M141,140.8L141,140.8L141,140.8z"/>
	<path id="XMLID_282_" class="st0" d="M138.6,140.8c-0.2,0-0.4,0-0.6,0C138.3,140.9,138.5,140.9,138.6,140.8z"/>
	<path id="XMLID_281_" class="st0" d="M147.3,139.3L147.3,139.3c-1.2,0-2.3,0-3.4,0.1C145.1,139.3,146.2,139.3,147.3,139.3z"/>
	<path id="XMLID_280_" class="st0" d="M143.4,139.3c-1.6,0-3.2,0.1-4.8,0.1C140.2,139.4,141.8,139.4,143.4,139.3z"/>
	<path id="XMLID_279_" class="st0" d="M146.4,140.6L146.4,140.6L146.4,140.6z"/>
	<path id="XMLID_278_" class="st3" d="M154,140.6c0-0.4,0-0.8,0-1.2c0-0.1,0-0.1,0-0.2c0,0,0,0-0.1,0c0,0.1,0,0.2,0,0.3
		C153.9,139.9,153.9,140.2,154,140.6C153.9,140.6,153.9,140.6,154,140.6L154,140.6z"/>
	<path id="XMLID_277_" class="st3" d="M216.7,144.9c-0.9-0.2-1.9-0.4-2.8-0.5l0,0c-0.9-0.2-1.9-0.3-2.8-0.5c-0.2,0-0.5-0.1-0.7-0.1
		c-0.9-0.2-1.9-0.3-2.8-0.5l0,0c-0.9-0.2-1.9-0.3-2.8-0.4c-0.2,0-0.5-0.1-0.7-0.1c-0.4-0.1-0.8-0.1-1.1-0.2
		c-0.1,0.5-0.2,0.9-0.3,1.3c0.4,0.1,0.8,0.1,1.3,0.2c0.2,0,0.5,0.1,0.7,0.1c0.9,0.1,1.9,0.3,2.8,0.4l0,0c0.9,0.2,1.9,0.3,2.8,0.5
		c0.2,0,0.5,0.1,0.7,0.1c1.9,0.3,3.7,0.7,5.6,1.1c0.2,0,0.5,0.1,0.7,0.1c0.7,0.1,1.4,0.3,2.1,0.4c0.1-0.4,0.2-0.9,0.3-1.3
		c-0.7-0.2-1.4-0.3-2.1-0.4C217.2,145,216.9,144.9,216.7,144.9z"/>
	<path id="XMLID_276_" class="st3" d="M155.2,140.6c0.8,0,1.7,0,2.5,0l0,0c0.9,0,1.7,0,2.6,0c0.2,0,0.4,0,0.6,0c0.9,0,1.7,0,2.6,0.1
		l0,0c0.9,0,1.8,0,2.7,0.1c0.2,0,0.4,0,0.7,0c0.9,0,1.8,0.1,2.7,0.1l0,0c0.5,0,0.9,0,1.4,0.1c0-0.5-0.1-0.9-0.1-1.4
		c-1.3-0.1-2.6-0.1-3.9-0.2c-0.2,0-0.4,0-0.6,0c-1.8-0.1-3.6-0.1-5.4-0.1c-0.2,0-0.4,0-0.6,0c-1.8,0-3.5,0-5.3,0c-0.2,0-0.4,0-0.6,0
		c-0.2,0-0.4,0-0.6,0c0,0.1,0,0.1,0,0.2c0,0.4,0,0.8,0,1.2c0.2,0,0.4,0,0.6,0C154.8,140.6,155,140.6,155.2,140.6z"/>
	<path id="XMLID_275_" class="st4" d="M154,139.2c0-0.5,0-0.9,0-1.4c0,0,0,0-0.1,0c0,0.1,0,0.2,0,0.2L154,139.2v-1.1
		C153.9,138.5,153.9,138.8,154,139.2C153.9,139.2,153.9,139.2,154,139.2L154,139.2z"/>
	<path id="XMLID_274_" class="st4" d="M154,140.6L154,140.6c-0.1,0.5,0,0.9,0,1.4c0,0,0,0,0.1,0C154,141.5,154,141,154,140.6z"/>
	<path id="XMLID_273_" class="st4" d="M204,142.6c0.2,0,0.5,0.1,0.7,0.1c0.9,0.1,1.9,0.3,2.8,0.4l0,0c0.9,0.2,1.9,0.3,2.8,0.5
		c0.2,0,0.5,0.1,0.7,0.1c0.9,0.2,1.9,0.3,2.8,0.5l0,0c0.9,0.2,1.9,0.4,2.8,0.5c0.2,0,0.5,0.1,0.7,0.1c0.7,0.1,1.4,0.3,2.1,0.4
		c0.1-0.4,0.2-0.9,0.2-1.4c-5.3-1.2-10.9-2.1-16.6-3c0,0.5-0.1,0.9-0.2,1.4C203.3,142.5,203.7,142.6,204,142.6z"/>
	<path id="XMLID_272_" class="st4" d="M155.2,139.2c1.7,0,3.5,0,5.3,0c0.2,0,0.4,0,0.6,0c1.8,0,3.6,0.1,5.4,0.1c0.2,0,0.4,0,0.6,0
		c1.3,0,2.6,0.1,3.9,0.2c0-0.1,0-0.1,0-0.2c0-0.4,0-0.8,0-1.2c-5.5-0.2-11.2-0.4-17-0.4c0,0.5,0,0.9,0,1.4c0.2,0,0.4,0,0.6,0
		C154.8,139.2,155,139.2,155.2,139.2z"/>
	<path id="XMLID_271_" class="st4" d="M216.4,146.2c-1.9-0.4-3.7-0.7-5.6-1.1c-0.2,0-0.5-0.1-0.7-0.1c-0.9-0.2-1.9-0.3-2.8-0.5l0,0
		c-0.9-0.2-1.9-0.3-2.8-0.4c-0.2,0-0.5-0.1-0.7-0.1c-0.4-0.1-0.8-0.1-1.3-0.2c-0.1,0.4-0.3,0.9-0.4,1.3c5.8,0.8,11.4,1.8,16.8,3
		c0.1-0.4,0.2-0.9,0.3-1.3c-0.7-0.2-1.4-0.3-2.1-0.5C216.9,146.3,216.7,146.3,216.4,146.2z"/>
	<path id="XMLID_270_" class="st4" d="M171.1,140.9c-0.5,0-0.9,0-1.4-0.1l0,0c-0.9,0-1.8-0.1-2.7-0.1c-0.2,0-0.4,0-0.7,0
		c-0.9,0-1.8-0.1-2.7-0.1l0,0c-0.9,0-1.7,0-2.6-0.1c-0.2,0-0.4,0-0.6,0c-0.9,0-1.7,0-2.6,0l0,0c-0.9,0-1.7,0-2.5,0
		c-0.2,0-0.4,0-0.6,0c-0.2,0-0.4,0-0.6,0c0,0.5,0,0.9,0.1,1.4c5.9,0,11.6,0.1,17.2,0.4C171.2,141.9,171.1,141.4,171.1,140.9z"/>
	<path id="XMLID_269_" class="st4" d="M154,140.6L154,140.6C153.9,140.6,153.9,140.6,154,140.6C153.9,140.6,153.9,140.6,154,140.6
		L154,140.6L154,140.6z"/>
	<path id="XMLID_268_" class="st4" d="M160.4,140.6c-0.9,0-1.7,0-2.6,0C158.6,140.6,159.5,140.6,160.4,140.6z"/>
	<path id="XMLID_267_" class="st4" d="M169.7,140.9c0.5,0,0.9,0,1.4,0.1l0,0C170.6,140.9,170.2,140.9,169.7,140.9z"/>
	<path id="XMLID_266_" class="st4" d="M213.9,144.3L213.9,144.3L213.9,144.3z"/>
	<path id="XMLID_265_" class="st4" d="M157.7,140.6c-0.9,0-1.7,0-2.5,0C156,140.6,156.9,140.6,157.7,140.6z"/>
	<path id="XMLID_264_" class="st4" d="M207.3,144.5c0.9,0.2,1.9,0.3,2.8,0.5C209.2,144.9,208.3,144.7,207.3,144.5z"/>
	<path id="XMLID_263_" class="st4" d="M210.4,143.7c0.2,0,0.5,0.1,0.7,0.1C210.9,143.8,210.6,143.7,210.4,143.7z"/>
	<path id="XMLID_262_" class="st4" d="M219.2,146.8L219.2,146.8c-0.7-0.2-1.4-0.3-2.1-0.5C217.8,146.5,218.5,146.6,219.2,146.8z"/>
	<path id="XMLID_261_" class="st4" d="M204,142.6c0.2,0,0.5,0.1,0.7,0.1C204.5,142.7,204.3,142.7,204,142.6z"/>
	<path id="XMLID_260_" class="st4" d="M207.5,143.2C207.6,143.2,207.6,143.2,207.5,143.2C207.6,143.2,207.6,143.2,207.5,143.2z"/>
	<path id="XMLID_259_" class="st4" d="M161,139.3c-0.2,0-0.4,0-0.6,0C160.6,139.3,160.8,139.3,161,139.3z"/>
	<path id="XMLID_258_" class="st4" d="M167.1,139.4c-0.2,0-0.4,0-0.6,0C166.6,139.4,166.9,139.4,167.1,139.4z"/>
	<path id="XMLID_257_" class="st4" d="M154.6,139.2c0.2,0,0.4,0,0.6,0C155,139.2,154.8,139.2,154.6,139.2z"/>
	<path id="XMLID_256_" class="st4" d="M169.7,140.9c-0.9,0-1.8-0.1-2.7-0.1C167.9,140.8,168.8,140.8,169.7,140.9z"/>
	<path id="XMLID_255_" class="st4" d="M166.4,140.8c-0.9,0-1.8-0.1-2.7-0.1C164.6,140.7,165.5,140.7,166.4,140.8z"/>
	<path id="XMLID_254_" class="st4" d="M204.5,144.1c0.9,0.1,1.9,0.3,2.8,0.4C206.4,144.4,205.5,144.2,204.5,144.1z"/>
	<path id="XMLID_253_" class="st4" d="M154,140.6L154,140.6c0.2,0,0.4,0,0.6,0C154.4,140.6,154.2,140.6,154,140.6z"/>
	<path id="XMLID_252_" class="st4" d="M210.8,145.1c1.9,0.3,3.7,0.7,5.6,1.1C214.6,145.8,212.7,145.5,210.8,145.1z"/>
	<path id="XMLID_251_" class="st4" d="M202.6,143.8L202.6,143.8c0.4,0.1,0.8,0.1,1.3,0.2C203.4,143.9,203,143.9,202.6,143.8z"/>
	<path id="XMLID_250_" class="st4" d="M216.7,144.9c0.2,0,0.5,0.1,0.7,0.1C217.2,145,216.9,144.9,216.7,144.9z"/>
	<path id="XMLID_249_" class="st4" d="M163.6,140.7c-0.9,0-1.7,0-2.6-0.1C161.9,140.7,162.8,140.7,163.6,140.7z"/>
	<path id="XMLID_248_" class="st3" d="M113,141.1C113,141.1,112.9,141.1,113,141.1l-0.1,1.4c0,0,0,0,0.1,0V141.1z"/>
	<path id="XMLID_247_" class="st3" d="M80.5,145.2C80.4,145.2,80.4,145.2,80.5,145.2c0,0.5,0.1,0.9,0.2,1.4c0,0,0,0,0.1,0
		C80.6,146.1,80.6,145.7,80.5,145.2z"/>
	<path id="XMLID_246_" class="st3" d="M97.7,142.7c-9.9,1.2-16.2,2.3-17.2,2.5c0.1,0.5,0.2,0.9,0.3,1.3c1.1-0.2,7.4-1.3,17.3-2.5
		C97.9,143.6,97.8,143.2,97.7,142.7z"/>
	<path id="XMLID_245_" class="st3" d="M128.2,141.3c0.2,0,0.3,0,0.5,0c0.7,0,1.4-0.1,2.1-0.1l0,0c0.7,0,1.4-0.1,2.2-0.1
		c0.2,0,0.4,0,0.5,0c1.5-0.1,3-0.1,4.5-0.2c0.2,0,0.4,0,0.6,0c0.8,0,1.6-0.1,2.3-0.1l0,0c0.8,0,1.6,0,2.4-0.1c0.2,0,0.4,0,0.6,0
		c0.8,0,1.6,0,2.4-0.1l0,0c0.3,0,0.6,0,0.9,0c0-0.3,0-0.6,0-1c0-0.1,0-0.3,0-0.4c-1.2,0-2.3,0-3.4,0.1c-0.2,0-0.4,0-0.6,0
		c-1.6,0-3.2,0.1-4.8,0.1c-0.2,0-0.4,0-0.6,0c-0.8,0-1.5,0.1-2.3,0.1l0,0c-0.8,0-1.5,0.1-2.2,0.1c-0.2,0-0.4,0-0.6,0
		c-0.7,0-1.5,0.1-2.2,0.1l0,0c-0.7,0-1.4,0.1-2.1,0.1c-0.2,0-0.4,0-0.5,0c-0.7,0-1.4,0.1-2.1,0.1c-4.6,0.3-9,0.6-13,1v1.4
		c4.1-0.4,8.5-0.7,13.1-1C126.8,141.4,127.5,141.4,128.2,141.3z"/>
	<path id="XMLID_244_" class="st4" d="M113,142.5C113,142.5,112.9,142.5,113,142.5l-0.1,1.4c0,0,0,0,0.1,0V142.5z"/>
	<path id="XMLID_243_" class="st4" d="M80.3,143.9C80.2,143.9,80.2,143.9,80.3,143.9c0,0.5,0.1,0.9,0.1,1.4c0,0,0,0,0.1,0
		C80.4,144.8,80.3,144.3,80.3,143.9z"/>
	<path id="XMLID_242_" class="st4" d="M113,139.7C113,139.7,112.9,139.7,113,139.7l-0.1,1.4c0,0,0,0,0.1,0V139.7z"/>
	<path id="XMLID_241_" class="st4" d="M80.7,146.6L80.7,146.6c0,0.5,0.1,0.9,0.2,1.4H81C80.9,147.5,80.8,147,80.7,146.6z"/>
	<path id="XMLID_240_" class="st4" d="M146.4,140.6L146.4,140.6c-0.8,0-1.6,0-2.4,0.1c-0.2,0-0.4,0-0.6,0c-0.8,0-1.6,0-2.4,0.1l0,0
		c-0.8,0-1.6,0-2.3,0.1c-0.2,0-0.4,0-0.6,0c-1.5,0.1-3.1,0.1-4.5,0.2c-0.2,0-0.4,0-0.5,0c-0.7,0-1.5,0.1-2.2,0.1l0,0
		c-0.7,0-1.4,0.1-2.1,0.1c-0.2,0-0.3,0-0.5,0c-0.7,0-1.4,0.1-2.1,0.1c-4.6,0.3-9,0.6-13.1,1v1.4c4.1-0.4,8.5-0.7,13.2-1
		c7.1-0.4,14.1-0.7,21.1-0.8c0-0.5,0.1-0.9,0.1-1.4C147,140.6,146.7,140.6,146.4,140.6z"/>
	<path id="XMLID_239_" class="st4" d="M98.1,144.1c-9.9,1.2-16.2,2.3-17.3,2.5c0.1,0.4,0.2,0.9,0.3,1.3c1.3-0.2,7.6-1.3,17.5-2.5
		C98.3,145,98.2,144.5,98.1,144.1z"/>
	<path id="XMLID_238_" class="st4" d="M128.1,140c0.2,0,0.4,0,0.5,0c0.7,0,1.4-0.1,2.1-0.1l0,0c0.7,0,1.4-0.1,2.2-0.1
		c0.2,0,0.4,0,0.6,0c0.7,0,1.5-0.1,2.2-0.1l0,0c0.8,0,1.5-0.1,2.3-0.1c0.2,0,0.4,0,0.6,0c1.6-0.1,3.1-0.1,4.8-0.1c0.2,0,0.4,0,0.6,0
		c1.1,0,2.3,0,3.4-0.1c0-0.5,0-0.9,0-1.4c-7,0.1-14.2,0.4-21.4,0.8c-4.6,0.3-8.9,0.6-12.9,1v1.4c4.1-0.4,8.4-0.7,13-1
		C126.7,140.1,127.4,140,128.1,140z"/>
	<path id="XMLID_237_" class="st4" d="M97.5,141.4c-9.8,1.2-16.1,2.3-17.2,2.5c0.1,0.5,0.1,0.9,0.2,1.4c1.1-0.2,7.4-1.3,17.2-2.5
		C97.6,142.3,97.6,141.8,97.5,141.4z"/>
	<path id="XMLID_236_" class="st4" d="M146.4,140.6c-0.8,0-1.6,0-2.4,0.1C144.8,140.7,145.6,140.7,146.4,140.6z"/>
	<path id="XMLID_235_" class="st4" d="M147.3,140.6L147.3,140.6c-0.3,0-0.6,0-0.9,0C146.7,140.6,147,140.6,147.3,140.6z"/>
	<path id="XMLID_234_" class="st4" d="M143.4,140.7c-0.8,0-1.6,0-2.4,0.1C141.8,140.7,142.6,140.7,143.4,140.7z"/>
	<path id="XMLID_233_" class="st4" d="M141,140.8c-0.8,0-1.6,0-2.3,0.1C139.4,140.8,140.2,140.8,141,140.8z"/>
	<path id="XMLID_232_" class="st4" d="M128.2,141.3c-0.7,0-1.4,0.1-2.1,0.1C126.8,141.4,127.5,141.4,128.2,141.3z"/>
	<path id="XMLID_231_" class="st4" d="M133.5,139.7c-0.2,0-0.4,0-0.6,0C133.1,139.7,133.3,139.7,133.5,139.7z"/>
	<path id="XMLID_230_" class="st4" d="M135.7,139.6L135.7,139.6L135.7,139.6z"/>
	<path id="XMLID_229_" class="st4" d="M130.8,139.8C130.8,139.8,130.7,139.8,130.8,139.8C130.7,139.8,130.8,139.8,130.8,139.8z"/>
	<path id="XMLID_228_" class="st4" d="M138.1,140.9c-1.5,0.1-3.1,0.1-4.5,0.2C135,141,136.5,140.9,138.1,140.9z"/>
	<path id="XMLID_227_" class="st4" d="M128.6,139.9c-0.2,0-0.4,0-0.5,0C128.3,140,128.4,139.9,128.6,139.9z"/>
	<path id="XMLID_226_" class="st4" d="M138.6,139.5c-0.2,0-0.4,0-0.6,0C138.2,139.5,138.4,139.5,138.6,139.5z"/>
	<path id="XMLID_225_" class="st4" d="M133,141.1c-0.7,0-1.5,0.1-2.2,0.1C131.5,141.2,132.3,141.1,133,141.1z"/>
	<path id="XMLID_224_" class="st4" d="M130.8,141.2c-0.7,0-1.4,0.1-2.1,0.1C129.4,141.3,130.1,141.2,130.8,141.2z"/>
	<path id="XMLID_223_" class="st4" d="M143.9,139.3c-0.2,0-0.4,0-0.6,0C143.6,139.3,143.7,139.3,143.9,139.3z"/>
	<path id="XMLID_222_" class="st5" d="M203.3,139.3c0,8.9-7.2,16.1-16.1,16.1c-8.9,0-16.1-7.2-16.1-16.1c0-8.9,7.2-16.1,16.1-16.1
		C196,123.2,203.3,130.4,203.3,139.3z"/>
	<g id="XMLID_216_">
		<circle class="st6" cx="187.1" cy="139.4" r="12.6"/>
		<path class="st0" d="M187.1,127.7c6.5,0,11.8,5.3,11.8,11.8s-5.3,11.8-11.8,11.8s-11.8-5.3-11.8-11.8
			C175.3,132.9,180.6,127.7,187.1,127.7 M187.1,126.1c-7.4,0-13.3,6-13.3,13.3c0,7.4,6,13.3,13.3,13.3c7.4,0,13.3-6,13.3-13.3
			C200.4,132.1,194.4,126.1,187.1,126.1L187.1,126.1z"/>
	</g>
	<g id="XMLID_213_">
		<path class="st3" d="M198.9,139.4c0,6.5-5.3,11.8-11.8,11.8s-11.8-5.3-11.8-11.8"/>
	</g>
	<g id="XMLID_212_">
		<line class="st1" x1="175.3" y1="139.4" x2="198.9" y2="139.4"/>
		<rect x="175.3" y="138.7" class="st0" width="23.6" height="1.6"/>
	</g>
	<g id="XMLID_206_">
		<circle class="st3" cx="187" cy="139.5" r="4.6"/>
		<path class="st0" d="M187,135.6c2.1,0,3.9,1.7,3.9,3.9c0,2.1-1.7,3.9-3.9,3.9c-2.1,0-3.9-1.7-3.9-3.9
			C183.2,137.3,184.9,135.6,187,135.6 M187,134c-3,0-5.4,2.4-5.4,5.4s2.4,5.4,5.4,5.4s5.4-2.4,5.4-5.4C192.5,136.5,190,134,187,134
			L187,134z"/>
	</g>
	<path id="XMLID_205_" class="st3" d="M94.6,115.8c0-0.4-0.3-0.7-0.7-0.7c-0.4,0-0.7,0.3-0.7,0.7c0,0.4,0.3,0.7,0.7,0.7
		C94.3,116.4,94.6,116.1,94.6,115.8z"/>
	<path id="XMLID_204_" class="st3" d="M103.6,122.7c0-0.5-0.2-0.8-0.5-0.8s-0.5,0.4-0.5,0.8c0,0.5,0.2,0.8,0.5,0.8
		S103.6,123.1,103.6,122.7z"/>
	<path id="XMLID_203_" class="st3" d="M94.4,120.9c0-0.3-0.2-0.6-0.5-0.6s-0.5,0.3-0.5,0.6c0,0.3,0.2,0.6,0.5,0.6
		C94.2,121.5,94.4,121.2,94.4,120.9z"/>
	<path id="XMLID_202_" class="st3" d="M90.9,126.4c0-0.3-0.2-0.5-0.3-0.5c-0.2,0-0.3,0.2-0.3,0.5s0.2,0.5,0.3,0.5
		C90.7,127,90.9,126.7,90.9,126.4z"/>
	<path id="XMLID_201_" class="st3" d="M98.9,128.2c0-0.3-0.2-0.5-0.5-0.5s-0.5,0.2-0.5,0.5s0.2,0.5,0.5,0.5
		C98.6,128.7,98.9,128.5,98.9,128.2z"/>
	<path id="XMLID_200_" class="st3" d="M96.5,130.6c0-0.3-0.3-0.6-0.6-0.6c-0.3,0-0.6,0.3-0.6,0.6s0.3,0.6,0.6,0.6
		C96.3,131.1,96.5,130.9,96.5,130.6z"/>
	<path id="XMLID_199_" class="st3" d="M108,120.3c0-0.4-0.3-0.7-0.6-0.7c-0.3,0-0.6,0.3-0.6,0.7c0,0.4,0.3,0.7,0.6,0.7
		C107.7,120.9,108,120.6,108,120.3z"/>
	<path id="XMLID_198_" class="st3" d="M101.5,112.7c0-0.3-0.2-0.5-0.5-0.5s-0.5,0.2-0.5,0.5s0.2,0.5,0.5,0.5S101.5,113,101.5,112.7z
		"/>
	<path id="XMLID_197_" class="st3" d="M104.1,110.3c0,0.3-0.2,0.5-0.5,0.5s-0.5-0.2-0.5-0.5s0.2-0.5,0.5-0.5S104.1,110,104.1,110.3z
		"/>
	<path id="XMLID_196_" class="st3" d="M109.2,115.8c0,0.3-0.2,0.5-0.5,0.5s-0.5-0.2-0.5-0.5s0.2-0.5,0.5-0.5
		C108.9,115.2,109.2,115.5,109.2,115.8z"/>
	<path id="XMLID_195_" class="st3" d="M111.6,116.9c0,0.4-0.2,0.7-0.5,0.7s-0.5-0.3-0.5-0.7c0-0.4,0.2-0.7,0.5-0.7
		C111.3,116.2,111.6,116.5,111.6,116.9z"/>
	<path id="XMLID_194_" class="st3" d="M114.3,115.8c0-0.3-0.2-0.5-0.5-0.5s-0.5,0.2-0.5,0.5s0.2,0.5,0.5,0.5
		C114.1,116.3,114.3,116.1,114.3,115.8z"/>
	<path id="XMLID_193_" class="st3" d="M116.4,114.4c0-0.3-0.2-0.5-0.5-0.5s-0.5,0.2-0.5,0.5s0.2,0.5,0.5,0.5
		C116.1,114.9,116.4,114.7,116.4,114.4z"/>
	<path id="XMLID_192_" class="st3" d="M116.4,110.6c0,0.3-0.2,0.5-0.5,0.5s-0.5-0.2-0.5-0.5s0.2-0.5,0.5-0.5
		C116.1,110.1,116.4,110.3,116.4,110.6z"/>
	<path id="XMLID_191_" class="st3" d="M121.4,115.8c0-0.3-0.2-0.5-0.5-0.5s-0.5,0.2-0.5,0.5s0.2,0.5,0.5,0.5
		C121.2,116.3,121.4,116.1,121.4,115.8z"/>
	<path id="XMLID_190_" class="st3" d="M120.9,116.5c0,0.3-0.2,0.6-0.5,0.6s-0.5-0.3-0.5-0.6c0-0.3,0.2-0.6,0.5-0.6
		C120.7,115.9,120.9,116.2,120.9,116.5z"/>
	<path id="XMLID_189_" class="st3" d="M127.1,115.1c0,0.3-0.2,0.5-0.4,0.5c-0.2,0-0.4-0.2-0.4-0.5s0.2-0.5,0.4-0.5
		C127,114.6,127.1,114.8,127.1,115.1z"/>
	<path id="XMLID_188_" class="st3" d="M125.9,117.9c0-0.3-0.2-0.5-0.5-0.5s-0.5,0.2-0.5,0.5s0.2,0.5,0.5,0.5
		C125.7,118.4,125.9,118.2,125.9,117.9z"/>
	<path id="XMLID_187_" class="st3" d="M126.5,125.1c0-0.3-0.2-0.5-0.4-0.5c-0.2,0-0.4,0.2-0.4,0.5s0.2,0.5,0.4,0.5
		S126.5,125.4,126.5,125.1z"/>
	<path id="XMLID_186_" class="st3" d="M132.2,115.1c0,0.3-0.2,0.5-0.4,0.5s-0.4-0.2-0.4-0.5s0.2-0.5,0.4-0.5
		C132.1,114.6,132.2,114.8,132.2,115.1z"/>
	<path id="XMLID_185_" class="st3" d="M84.2,131.3c0-0.3-0.4-0.6-0.9-0.6s-0.9,0.3-0.9,0.6s0.4,0.6,0.9,0.6
		C83.8,131.9,84.2,131.6,84.2,131.3z"/>
	<path id="XMLID_184_" class="st3" d="M82.8,130.9c0-0.3-0.2-0.5-0.4-0.5c-0.2,0-0.4,0.2-0.4,0.5s0.2,0.5,0.4,0.5
		C82.6,131.4,82.8,131.2,82.8,130.9z"/>
	<path id="XMLID_183_" class="st3" d="M82.5,135.9c0-0.2-0.2-0.4-0.5-0.4c-0.2,0-0.5,0.2-0.5,0.4s0.2,0.4,0.5,0.4
		C82.3,136.2,82.5,136.1,82.5,135.9z"/>
	<path id="XMLID_182_" class="st3" d="M87.6,137.7c0-0.2-0.2-0.4-0.4-0.4c-0.2,0-0.4,0.2-0.4,0.4s0.2,0.4,0.4,0.4
		C87.5,138.1,87.6,137.9,87.6,137.7z"/>
	<path id="XMLID_181_" class="st3" d="M92.2,140.5c0-0.3-0.2-0.5-0.4-0.5c-0.2,0-0.4,0.2-0.4,0.5s0.2,0.5,0.4,0.5
		C92,140.9,92.2,140.7,92.2,140.5z"/>
	<path id="XMLID_180_" class="st3" d="M115.6,137.7c-0.2-0.4-0.6-0.6-1-0.4c-0.4,0.2-0.6,0.6-0.4,1s0.6,0.6,1,0.4
		C115.6,138.5,115.8,138.1,115.6,137.7z"/>
	<path id="XMLID_179_" class="st3" d="M122.1,139.1c0-0.3-0.2-0.5-0.4-0.5c-0.2,0-0.4,0.2-0.4,0.5s0.2,0.5,0.4,0.5
		S122.1,139.4,122.1,139.1z"/>
	<path id="XMLID_178_" class="st3" d="M128.6,136.9c0-0.3-0.2-0.5-0.5-0.5s-0.5,0.2-0.5,0.5s0.2,0.5,0.5,0.5
		C128.4,137.4,128.6,137.2,128.6,136.9z"/>
	<path id="XMLID_177_" class="st3" d="M142.7,135c0-0.2-0.2-0.4-0.5-0.4s-0.5,0.2-0.5,0.4s0.2,0.4,0.5,0.4S142.7,135.2,142.7,135z"
		/>
	<path id="XMLID_176_" class="st3" d="M143.8,136.7c0-0.3,0.2-0.5,0.5-0.5s0.5,0.2,0.5,0.5s-0.2,0.5-0.5,0.5
		C144,137.3,143.8,137,143.8,136.7z"/>
	<path id="XMLID_175_" class="st3" d="M161.1,138.9c0-0.2-0.2-0.4-0.3-0.4c-0.2,0-0.3,0.2-0.3,0.4s0.2,0.4,0.3,0.4
		C161,139.3,161.1,139.1,161.1,138.9z"/>
	<path id="XMLID_174_" class="st3" d="M160.6,132.6c0-0.3-0.2-0.5-0.4-0.5s-0.4,0.2-0.4,0.5s0.2,0.5,0.4,0.5
		C160.4,133.1,160.6,132.9,160.6,132.6z"/>
	<path id="XMLID_173_" class="st3" d="M165.2,131.8c0-0.3-0.3-0.5-0.8-0.5c-0.4,0-0.8,0.2-0.8,0.5s0.3,0.5,0.8,0.5
		C164.8,132.3,165.2,132.1,165.2,131.8z"/>
	<path id="XMLID_172_" class="st3" d="M165.1,129.3c0-0.2-0.2-0.4-0.5-0.4s-0.5,0.2-0.5,0.4s0.2,0.4,0.5,0.4
		C164.9,129.7,165.1,129.5,165.1,129.3z"/>
	<path id="XMLID_171_" class="st3" d="M166,125c0-0.3,0.2-0.5,0.4-0.5s0.4,0.2,0.4,0.5s-0.2,0.5-0.4,0.5S166,125.3,166,125z"/>
	<path id="XMLID_170_" class="st3" d="M170.9,129.2c0,0.3-0.2,0.5-0.5,0.5s-0.5-0.2-0.5-0.5s0.2-0.5,0.5-0.5
		S170.9,128.9,170.9,129.2z"/>
	<path id="XMLID_169_" class="st3" d="M174.7,125c0-0.3-0.2-0.5-0.5-0.5s-0.5,0.2-0.5,0.5s0.2,0.5,0.5,0.5S174.7,125.2,174.7,125z"
		/>
	<path id="XMLID_168_" class="st3" d="M162.5,121.1c0-0.3-0.2-0.6-0.4-0.6s-0.4,0.2-0.4,0.6c0,0.3,0.2,0.6,0.4,0.6
		C162.3,121.6,162.5,121.4,162.5,121.1z"/>
	<path id="XMLID_167_" class="st3" d="M164.4,119.8c0-0.3-0.2-0.6-0.6-0.6c-0.3,0-0.6,0.3-0.6,0.6s0.2,0.6,0.6,0.6
		C164.1,120.4,164.4,120.1,164.4,119.8z"/>
	<path id="XMLID_166_" class="st3" d="M187.2,107.6c-0.3-0.3-0.6-0.4-0.8-0.2c-0.2,0.2-0.1,0.5,0.2,0.8s0.6,0.4,0.8,0.2
		C187.6,108.3,187.5,107.9,187.2,107.6z"/>
	<path id="XMLID_165_" class="st3" d="M186.3,109.7c0-0.3-0.2-0.5-0.3-0.5c-0.2,0-0.3,0.2-0.3,0.5s0.2,0.5,0.3,0.5
		S186.3,110,186.3,109.7z"/>
	<path id="XMLID_164_" class="st3" d="M188.3,109.5c0-0.1-0.2-0.3-0.5-0.3s-0.5,0.1-0.5,0.3c0,0.1,0.2,0.3,0.5,0.3
		C188.1,109.7,188.3,109.6,188.3,109.5z"/>
	<path id="XMLID_163_" class="st3" d="M174.7,112c0-0.2-0.2-0.4-0.5-0.4s-0.5,0.2-0.5,0.4c0,0.2,0.2,0.4,0.5,0.4
		S174.7,112.2,174.7,112z"/>
	<path id="XMLID_162_" class="st3" d="M183.5,114.2c0-0.3,0.2-0.5,0.4-0.5s0.4,0.2,0.4,0.5s-0.2,0.5-0.4,0.5
		S183.5,114.5,183.5,114.2z"/>
	<path id="XMLID_161_" class="st3" d="M175.3,115.4c0-0.3-0.2-0.5-0.5-0.5s-0.5,0.2-0.5,0.5s0.2,0.5,0.5,0.5
		S175.3,115.7,175.3,115.4z"/>
	<path id="XMLID_160_" class="st3" d="M172.1,118c0-0.2-0.2-0.4-0.5-0.4s-0.5,0.2-0.5,0.4c0,0.2,0.2,0.4,0.5,0.4
		C171.8,118.4,172.1,118.2,172.1,118z"/>
	<path id="XMLID_159_" class="st3" d="M182.6,120.5c0-0.2-0.2-0.4-0.6-0.4c-0.3,0-0.6,0.2-0.6,0.4c0,0.2,0.2,0.4,0.6,0.4
		C182.4,120.9,182.6,120.7,182.6,120.5z"/>
	<path id="XMLID_158_" class="st3" d="M188.8,119.8c0-0.3,0.1-0.6,0.3-0.6s0.3,0.2,0.3,0.6c0,0.3-0.1,0.6-0.3,0.6
		C189,120.4,188.8,120.2,188.8,119.8z"/>
	<path id="XMLID_157_" class="st3" d="M192.7,117.8c0,0.3-0.2,0.5-0.4,0.5s-0.4-0.2-0.4-0.5s0.2-0.5,0.4-0.5
		C192.5,117.4,192.7,117.6,192.7,117.8z"/>
	<path id="XMLID_156_" class="st3" d="M191.6,123c0-0.3,0.2-0.6,0.6-0.6c0.3,0,0.6,0.2,0.6,0.6c0,0.3-0.2,0.6-0.6,0.6
		C191.9,123.5,191.6,123.3,191.6,123z"/>
	<path id="XMLID_155_" class="st3" d="M199.2,114.4c0,0.2-0.2,0.4-0.4,0.4s-0.4-0.2-0.4-0.4c0-0.2,0.2-0.4,0.4-0.4
		C199.1,114,199.2,114.2,199.2,114.4z"/>
	<path id="XMLID_154_" class="st3" d="M196.1,123.7c-0.4-0.3-0.5-0.7-0.4-0.9c0.2-0.2,0.6-0.1,0.9,0.3c0.4,0.3,0.5,0.7,0.4,0.9
		C196.8,124.1,196.4,124,196.1,123.7z"/>
	<path id="XMLID_153_" class="st3" d="M199.8,120.4c0-0.2-0.2-0.4-0.3-0.4c-0.2,0-0.3,0.2-0.3,0.4c0,0.2,0.2,0.4,0.3,0.4
		C199.6,120.7,199.8,120.6,199.8,120.4z"/>
	<path id="XMLID_152_" class="st3" d="M199.3,124.2c0-0.3-0.2-0.5-0.3-0.5s-0.3,0.2-0.3,0.5s0.2,0.5,0.3,0.5
		S199.3,124.5,199.3,124.2z"/>
	<path id="XMLID_151_" class="st3" d="M201.7,124.3c0-0.3-0.2-0.6-0.3-0.6c-0.2,0-0.3,0.2-0.3,0.6c0,0.3,0.2,0.6,0.3,0.6
		S201.7,124.7,201.7,124.3z"/>
	<path id="XMLID_150_" class="st3" d="M200.6,128.7c0-0.2-0.2-0.4-0.3-0.4c-0.2,0-0.3,0.2-0.3,0.4s0.2,0.4,0.3,0.4
		C200.5,129.2,200.6,129,200.6,128.7z"/>
	<path id="XMLID_149_" class="st3" d="M204.2,129.5c0,0.2-0.3,0.4-0.7,0.4s-0.7-0.2-0.7-0.4s0.3-0.4,0.7-0.4
		C203.8,129.1,204.2,129.3,204.2,129.5z"/>
	<path id="XMLID_148_" class="st3" d="M205.3,118.1c0-0.3-0.3-0.6-0.6-0.6s-0.6,0.3-0.6,0.6c0,0.3,0.3,0.6,0.6,0.6
		S205.3,118.4,205.3,118.1z"/>
	<path id="XMLID_147_" class="st3" d="M210.5,123.2c0-0.2,0.2-0.4,0.4-0.4s0.4,0.2,0.4,0.4c0,0.2-0.2,0.4-0.4,0.4
		C210.6,123.6,210.5,123.4,210.5,123.2z"/>
	<path id="XMLID_146_" class="st3" d="M210.7,136.6c0-0.3-0.3-0.6-0.8-0.6c-0.4,0-0.8,0.3-0.8,0.6s0.3,0.6,0.8,0.6
		C210.3,137.2,210.7,136.9,210.7,136.6z"/>
	<path id="XMLID_145_" class="st3" d="M215.9,132.1c0-0.3-0.2-0.6-0.5-0.6s-0.5,0.2-0.5,0.6c0,0.3,0.2,0.6,0.5,0.6
		C215.6,132.6,215.9,132.4,215.9,132.1z"/>
	<path id="XMLID_144_" class="st3" d="M204.5,141.8c0,0.2-0.2,0.4-0.5,0.4s-0.5-0.2-0.5-0.4s0.2-0.4,0.5-0.4
		C204.3,141.3,204.5,141.5,204.5,141.8z"/>
	<path id="XMLID_143_" class="st3" d="M212.1,140.4c0-0.2-0.2-0.4-0.5-0.4s-0.5,0.2-0.5,0.4s0.2,0.4,0.5,0.4
		C211.8,140.8,212.1,140.6,212.1,140.4z"/>
	<path id="XMLID_142_" class="st3" d="M218.3,139.9c0-0.2-0.2-0.4-0.4-0.4s-0.4,0.2-0.4,0.4s0.2,0.4,0.4,0.4
		C218.1,140.3,218.3,140.2,218.3,139.9z"/>
	<g id="XMLID_126_">
		<path id="XMLID_141_" class="st7" d="M171.3,142.5v-0.1c-5.6-0.2-11.3-0.4-17.2-0.4c0,0.1,0,0.2,0,0.3
			C159.7,142.2,165.5,142.2,171.3,142.5z"/>
		<path id="XMLID_140_" class="st7" d="M218.4,149.9c0.2-0.6,0.4-1.1,0.5-1.7c-3.4-0.7-6.8-1.4-10.3-2c1.7,0.3,3.4,0.6,5.1,1
			C211,147.8,217.3,149.3,218.4,149.9z"/>
		<path id="XMLID_139_" class="st7" d="M166.6,163.9c-2-0.2-0.9-0.3-0.9-0.3s2.5-2.1-2-1.8c-1.4-0.5-1.4-1.7-1.4-1.7
			s1.5-0.2,2.7,0.5c1.2,0.6,3.9,1,4.8,0.2c0.9-0.9-3.4-1.5-0.5-2.3c3.3-0.1,8.1-1,3.4-1.5c-4.7-0.5-5.9,1.1-7.5,0.7
			c-1.6-0.3-4.5-1-5.2-0.2c-0.1,0.1-0.3,0.2-0.7,0.2c2.1,3.2,4.7,5.9,7.7,8.2c0.2-0.1,0.5-0.1,1-0.2
			C172.1,165.2,177.4,163.4,166.6,163.9z"/>
		<path id="XMLID_138_" class="st7" d="M173.3,168.3c0.7-1.1-1.1-1.4-2.1-1.1c-0.4,0.1-1.5-0.1-2.6-0.3c1.5,1,3.2,1.9,4.9,2.7
			C173.2,169.3,173,168.8,173.3,168.3z"/>
		<path id="XMLID_137_" class="st7" d="M212.2,159.9c-2.1,4.2-6.5,5.8-6.5,5.8c-0.7-1.3-5.8,1-8.2,1.4c-2.3,0.4-7.8,2.7-7.7,1.5
			c0.2-1.1-2.7-1.7-3.4-0.6c-0.7,1.1-2.2,1.4-3.3,1.5s-2.2,0.5-3,1c-0.6,0.4-3.3,0-4.8-0.2c3.6,1.4,7.6,2.1,11.7,2.1
			c10.3,0,19.4-4.7,25.5-12c0.8-1,1.6-2,2.3-3.1c-0.1,0-0.3,0-0.4-0.1C208.3,156.3,206.3,157.1,212.2,159.9z"/>
		<path id="XMLID_136_" class="st7" d="M147.3,142c-6.9,0.1-14,0.4-21.1,0.8c-4.7,0.3-9.1,0.6-13.2,1v0.3c10-0.9,21.8-1.6,34.3-1.8
			C147.3,142.2,147.3,142.1,147.3,142z"/>
		<path id="XMLID_135_" class="st7" d="M131.9,158c11.3-2.9,2.5-2.7-6.2-0.5c-8.7,2.3,5.7-2.7-3.1-2.5s-4.5,0.9-6.3,1.9
			c-1.8,1.1-5.9-0.3-7.4-1.5c-1.4-1.2-5.5-1.9-12.4-1.9s-9.1-1-6-1.7c3.1-0.6,6.3-2.7-7.7-1.3c-0.3,0-0.6,0.1-0.9,0.1
			c4.6,13,17.1,22.4,31.8,22.4c10.4,0,19.8-4.7,26-12.1c0.6-0.7,1.1-1.4,1.7-2.2c-0.8,0.1-1.7,0.3-2.6,0.4
			C126.3,161.5,120.6,160.8,131.9,158z"/>
		<path id="XMLID_134_" class="st7" d="M98.5,145.4c-4.9,0.6-8.9,1.2-11.9,1.6c3-0.4,7-0.9,12-1.5L98.5,145.4z"/>
		<path id="XMLID_133_" class="st7" d="M168.6,166.9c-0.5-0.3-1-0.7-1.5-1.1C166.1,166.1,167.3,166.6,168.6,166.9z"/>
		<path id="XMLID_132_" class="st7" d="M174.4,170.2c0,0,0.4,0.1,1,0.2c-0.6-0.2-1.3-0.5-1.9-0.8C173.9,170,174.4,170.2,174.4,170.2
			z"/>
		<path id="XMLID_131_" class="st7" d="M218.5,149.9C218.4,149.9,218.4,149.9,218.5,149.9c-0.9,2.6-2.2,5.2-3.7,7.5
			C220.4,158,219.3,150.4,218.5,149.9z"/>
	</g>
	<path id="XMLID_113_" class="st5" d="M187,106.3c18.3,0,33.1,14.8,33.1,33.1s-14.8,33.1-33.1,33.1s-33.1-14.8-33.1-33.1
		C154,121.1,168.8,106.3,187,106.3 M187,103.6c-19.8,0-35.8,16.1-35.8,35.8s16.1,35.8,35.8,35.8s35.8-16.1,35.8-35.8
		S206.8,103.6,187,103.6L187,103.6z"/>
	<path id="XMLID_106_" class="st5" d="M113.7,106.2c9.7,0,18.9,4.1,25.3,11.3l-13.1,11.6c-3.1-3.5-7.5-5.5-12.2-5.5
		c-8.9,0-16.2,7.1-16.2,15.9c0,8.8,7.3,15.9,16.2,15.9c6.5,0,12.1-3.7,14.7-9.1H113v-15.1h33.3c0,0,0,0,0.1,0.1s0.2,0.7,0.2,0.7
		c0.6,2.5,0.9,5,0.9,7.5c0,18.4-15.1,33.4-33.7,33.4C95.1,173,80,158,80,139.6S95.1,106.2,113.7,106.2 M113.7,104.1
		c-19.7,0-35.8,15.9-35.8,35.5s16,35.5,35.8,35.5c19.7,0,35.8-15.9,35.8-35.5c0-2.6-0.3-5.2-0.9-7.8l-0.2-0.5c0,0-0.4-0.9-0.7-1.2
		s-1.1-0.8-1.1-0.8h-0.5l0,0l0,0H129l11.5-10.2l1.5-1.4l-1.4-1.5C133.7,108.5,124,104.1,113.7,104.1L113.7,104.1z M113.7,153.5
		c-7.8,0-14.2-6.2-14.2-13.9c0-7.6,6.4-13.9,14.2-13.9c3.5,0,6.8,1.3,9.4,3.5H113h-2.1v2.1v15.1v2.1h2.1h11.6
		C121.9,151.6,117.9,153.5,113.7,153.5L113.7,153.5z"/>
	
		<linearGradient id="XMLID_00000090271332066833977160000007405046368221578134_" gradientUnits="userSpaceOnUse" x1="397.8483" y1="600.9213" x2="386.6962" y2="580.1379" gradientTransform="matrix(1 0 0 1 -383.0552 -541.3274)">
		<stop  offset="0" style="stop-color:#0070B6"/>
		<stop  offset="1" style="stop-color:#1D2C5E"/>
	</linearGradient>
	<polygon id="XMLID_118_" style="fill:url(#XMLID_00000090271332066833977160000007405046368221578134_);" points="13.4,63.3 
		18.7,58.2 4.2,36.5 0,40.7 	"/>
	<polygon id="XMLID_117_" class="st9" points="198.3,25.9 204.7,23.8 203.9,20.2 198.8,22.9 	"/>
	
		<linearGradient id="XMLID_00000129187915872599478050000002170144819361891261_" gradientUnits="userSpaceOnUse" x1="533.8975" y1="558.475" x2="548.0537" y2="543.3071" gradientTransform="matrix(1 0 0 1 -383.0552 -541.3274)">
		<stop  offset="0" style="stop-color:#0070B6"/>
		<stop  offset="1" style="stop-color:#1D2C5E"/>
	</linearGradient>
	<polygon id="XMLID_116_" style="fill:url(#XMLID_00000129187915872599478050000002170144819361891261_);" points="140.9,26.2 
		146.9,24.5 166.5,0 161.5,2.6 	"/>
	<polygon id="XMLID_115_" class="st11" points="271.7,34.9 276.8,32.2 275.3,44.9 	"/>
	<polygon id="XMLID_114_" class="st11" points="244.8,43.9 250.5,41.2 245.5,39.3 240.3,43 	"/>
	
		<linearGradient id="XMLID_00000157290037103606041240000015930208136162902188_" gradientUnits="userSpaceOnUse" x1="472.1414" y1="583.7416" x2="470.4533" y2="569.5599" gradientTransform="matrix(1 0 0 1 -383.0552 -541.3274)">
		<stop  offset="0" style="stop-color:#0070B6"/>
		<stop  offset="1" style="stop-color:#1D2C5E"/>
	</linearGradient>
	<polygon id="XMLID_112_" style="fill:url(#XMLID_00000157290037103606041240000015930208136162902188_);" points="86,44.2 
		92.3,41.7 90.4,26.8 85.3,29.6 	"/>
	
		<linearGradient id="XMLID_00000005988720062663711070000011313032161520141441_" gradientUnits="userSpaceOnUse" x1="626.7913" y1="581.0113" x2="626.1171" y2="568.2111" gradientTransform="matrix(1 0 0 1 -383.0552 -541.3274)">
		<stop  offset="0" style="stop-color:#125D9E"/>
		<stop  offset="1" style="stop-color:#1D2C5E"/>
	</linearGradient>
	<polygon id="XMLID_111_" style="fill:url(#XMLID_00000005988720062663711070000011313032161520141441_);" points="240.3,43 
		245.4,40.4 247,33.1 245.1,25.2 240.1,27.9 	"/>
	<polygon id="XMLID_109_" class="st14" points="238.9,93.4 247.8,91.6 249.5,41.3 244.4,44 	"/>
	<polygon id="XMLID_104_" class="st15" points="260.9,92.2 243.9,90.7 238.9,93.4 255.3,95.7 255.5,102.4 272.6,107.9 277.6,105.2 	
		"/>
	<polygon id="XMLID_103_" class="st15" points="199.2,71.8 174.9,76 170.2,80.5 192,84 196.2,81.7 198.9,86.6 202.8,84.5 203.6,91 
		228.4,95.4 233.4,92.7 	"/>
	
		<linearGradient id="XMLID_00000096746958399498747750000017149251408413324436_" gradientUnits="userSpaceOnUse" x1="579.5241" y1="562.5724" x2="564.6691" y2="586.2053" gradientTransform="matrix(1 0 0 1 -383.0552 -541.3274)">
		<stop  offset="0" style="stop-color:#125D9E"/>
		<stop  offset="1" style="stop-color:#1D2C5E"/>
	</linearGradient>
	<polygon id="XMLID_102_" style="fill:url(#XMLID_00000096746958399498747750000017149251408413324436_);" points="170.2,80.5 
		175.2,77.9 183.8,47.2 184.1,23.2 179.2,25.9 	"/>
	<polygon id="XMLID_101_" class="st11" points="150.3,27.9 146.2,23.5 140.9,26.2 144.5,30.5 140.5,32.6 140.9,33.9 	"/>
	<polygon id="XMLID_100_" class="st15" points="114.9,74.9 119.9,71.1 160.3,92.2 155.3,94.9 	"/>
	<polygon id="XMLID_99_" class="st11" points="112.5,32 119,30 123.7,17.6 118.7,20.3 	"/>
	
		<linearGradient id="XMLID_00000003808711922545493730000003569910099671004065_" gradientUnits="userSpaceOnUse" x1="447.9427" y1="600.5188" x2="458.0713" y2="620.4385" gradientTransform="matrix(1 0 0 1 -383.0552 -541.3274)">
		<stop  offset="0" style="stop-color:#105FA1"/>
		<stop  offset="1" style="stop-color:#1D2C5E"/>
	</linearGradient>
	<path id="XMLID_98_" style="fill:url(#XMLID_00000003808711922545493730000003569910099671004065_);" d="M63,68.4l-5.2,3.5
		c0,0,1.1,5.8,2.5,9.8s4.8,7.3,4.8,7.3c2.2,2.1,4.8,3.7,7.8,4.5c5.7,1.6,12.2,0.6,17.7-3c1.4-0.9,3.4-2.4,4.6-3.5
		C89.9,90.3,63,68.4,63,68.4z"/>
	<polygon id="XMLID_97_" class="st11" points="96,39.9 91,41.6 86,44.2 90.7,43.1 95.4,95.1 114.7,92.3 119.9,89.6 	"/>
	
		<linearGradient id="XMLID_00000173872712707827683400000018265527903591081100_" gradientUnits="userSpaceOnUse" x1="409.8138" y1="593.6723" x2="421.5363" y2="620.8474" gradientTransform="matrix(1 0 0 1 -383.0552 -541.3274)">
		<stop  offset="0" style="stop-color:#105FA1"/>
		<stop  offset="1" style="stop-color:#1D2C5E"/>
	</linearGradient>
	<polygon id="XMLID_96_" style="fill:url(#XMLID_00000173872712707827683400000018265527903591081100_);" points="23,55.6 
		17.6,58.8 13.4,63.3 18.4,61.1 40,110 60.4,103.4 65.4,100 	"/>
	<path id="XMLID_95_" class="st11" d="M232,84.2l0.3,2.4c1.8-0.2,3.6-0.4,5.2-1c1.8-0.6,5.9-2.4,7.4-3.7
		C244.3,82.1,234.9,84.5,232,84.2"/>
	<path id="XMLID_94_" class="st11" d="M159.6,71.7l0.8,3.9c4.1-0.6,7.7-2.2,11.2-4.3c2.2-1.3,4.6-3.3,5.4-3.8
		C176.4,67.9,159.6,71.7,159.6,71.7z"/>
	<g id="XMLID_88_">
		<path id="XMLID_89_" class="st19" d="M45.6,105.4l-1.6-3.6L23.5,56.2l-0.4-0.9l-0.9,0.4L21.6,56L18,57.8c-0.5-0.9-1.4-2.4-2-3.5
			L7.7,40.4l-2.2-3.6l3.6-2.3c3.4-2.1,7.2-4.1,11.3-5.9c8.2-3.5,16.6-5.4,24.3-5.4c2.5,0,5,0.2,7.3,0.6c3.8,0.4,7.4,1.7,10.3,3.6
			c4.3,2.4,7.8,6.2,9.7,10.7c1.6,3.7,1.9,8,0.9,12.4l-0.6,2.6l2.2-1.6c1.5-1.1,3.1-2,4.7-2.7c2.9-1.2,5.9-1.8,8.9-1.8
			c2.8,0,5.5,0.6,8,1.7l1.6,0.7l-0.2-1.7l-0.7-7.5L96.7,39l-1.2,0.3l-3.5,1l-0.6-12.7l25.4-8.1l-0.2,9.9l1.9,0.5l5.5-10.6L140.6,34
			l0.7,0.6L142,34c2.3-2.1,5-3.8,8-5.1l1.3-0.5l-0.9-1.1l-3-3.6l19-21.9l10,14.9l-15.3,8.2l-3.4,1.8l3.8,0.1
			c7.2,0.2,13.6,3.2,18,8.6l1.6,2l1,1.3l-1.7,1.8l-1.1,1.2l-3.8,4.1l-0.7,0.8l0.8,0.7l3.6,3.2l1.4,1.2l0.3-1.8l1.4-8.5l0.4-2.2l0,0
			l0.4-2.2l2-12.5h18.3h0.9l0.1-0.8l0.4-2.1h16.5l4,25.2l0.3,1.6l1.3-1c1.6-1.2,3.4-2.1,5.3-2.9c2.5-1,5.1-1.4,7.8-1.4
			c3.1,0,6.1,0.7,8.7,2.1c0.1,0.1,0.2,0.1,0.3,0.2l1.2,0.5l0.1-1.3l0.3-2.7l0.1-0.9l-0.9-0.2l-3.3-0.7L246.3,27l25.4,5.6l1.9,9.4h2
			l2-8.1l21.2,5.2L277,103.9L261.5,99l-0.1-6v-0.9l-0.9-0.1L245,89.9l0.9-7.9l0.2-1.9l-1.7,0.9c-0.8,0.4-1.6,0.7-2.3,1
			c-2.5,1-5.1,1.4-7.7,1.4c-0.7,0-1.5,0-2.2-0.1l-1.3-0.1l0.2,1.3l1.1,6.9l-22.6-4l-1.2-10.3l-0.4-3.3l-1.5,2.9l-2.6,5l-4.8-8.8
			l-1.4-2.7l-0.5,3l-1,6.8l-19.8-3l1.5-9.4l0.4-2.2l-1.9,1.1c-3.2,1.9-7,3.4-11.4,4.5c-1.5,0.4-3.2,0.6-4.8,0.8l-0.9,0.1v0.9v17.7
			l-39-19.3l-1.5-0.7v1.6v16.5l-17.4,2.6l-0.7-7.9l-0.2-2.1L99,82.7c-2.3,2.3-4.9,4-7.7,5.2c-2.9,1.2-5.8,1.8-8.8,1.8
			s-5.8-0.6-8.3-1.8c-4.7-2.3-8.1-6.4-9.5-11.5c-0.7-2.4-0.9-5-0.6-7.6l0.3-2.8l-2,1.9c-1.4,1.4-3,2.7-4.6,3.9l-0.6,0.4l0.2,0.7
			l5.9,22.5l1,4l-3.9,1.3l-11.1,3.5L45.6,105.4L45.6,105.4z M50.5,44.9c-0.6,0-1.2,0.1-1.8,0.2L48,45.2l-1.1,0.2l0.3,1.1l0.2,0.7
			l3.2,10.3l0.3,1l0.5,1.5l1.2-1l0.8-0.7c3.1-2.8,4.1-5.6,3.5-9.1c-0.4-2.1-2-3.2-3-3.6C52.9,45.1,51.8,44.9,50.5,44.9L50.5,44.9z
			 M135.3,45.2l-2,1.9l-5.2,5.1l-1.1,1.1l1.5,0.6L134,56l1.7,0.7l-0.4-1.8c-0.5-2.3-0.6-4.7-0.4-6.9L135.3,45.2L135.3,45.2z
			 M158,39.4c-2.2,0-4.2,0.9-5.7,2.5c-2.3,2.5-2.7,6.1-1.1,9l0.4,0.8l0.7,1.3l1-1.1l0.6-0.7l7.6-8.7l0.6-0.7l1-1.1l-1.4-0.5
			l-0.9-0.3C160,39.6,159,39.4,158,39.4L158,39.4z"/>
	</g>
	<path id="XMLID_87_" class="st20" d="M169.7,52.4c-0.1,0.1-0.1,0.1-0.2,0.2C169.6,52.5,169.7,52.5,169.7,52.4L169.7,52.4z"/>
	<polygon id="XMLID_86_" class="st20" points="177.4,51.9 178.1,47.9 179.9,49.5 176.3,46.3 180.1,42.2 178.8,43.6 178.8,43.4 
		177.7,44.6 173.9,48.7 	"/>
	<polygon id="XMLID_85_" class="st20" points="179.9,49.5 181.2,41 180.1,42.2 176.3,46.3 	"/>
	<path id="XMLID_84_" class="st20" d="M128.8,52.9L128.8,52.9L128.8,52.9z"/>
	<path id="XMLID_83_" class="st21" d="M149.9,56.4c0.3,0.3,0,0.1,0.4,0.3l2.3-1.6c-0.3-0.2-0.7-0.5-1-0.8c-3.4-3.1-2.5-10-0.3-13.8
		C145.5,45.2,145.8,52.3,149.9,56.4"/>
	<path id="XMLID_82_" class="st21" d="M178.1,60.3c-3.9,3.2-8.2,5.3-14,6.7c-1.3,0.3-2.5,0.5-3.7,0.6c-9.2,0.9-16.9-3.3-19.9-10.2
		c-0.4-0.8-0.6-1.7-0.9-2.6c-1.4-5.8-0.2-10.9,2.7-15c0.3-0.4,0.6-0.8,0.9-1.1c-0.1,0.1-0.3,0.2-0.4,0.3c-1.1,1-2.1,2-2.9,3.2
		c-2.9,4-4,9.2-2.6,15c0.2,0.9,0.5,1.8,0.8,2.6C141,66.7,148.8,70.9,158,70c1.2-0.1,2.5-0.3,3.7-0.6c5.8-1.4,10.2-3.5,14-6.7
		c0.9-0.8,1.8-1.6,2.7-2.5l-0.1-0.1C178.2,60.2,178.2,60.3,178.1,60.3"/>
	<polygon id="XMLID_81_" class="st21" points="123.5,28.4 123.1,28 113.1,42 113.2,42.9 	"/>
	<polygon id="XMLID_80_" class="st21" points="178.8,43.4 178.8,43.6 180.1,42.2 181.2,41 179.9,49.5 178.1,47.9 177.4,51.9 
		173.9,48.7 177.7,44.6 	"/>
	<polygon id="XMLID_79_" class="st21" points="172.1,15.6 165.5,7.2 163.4,10.2 168.5,17.2 	"/>
	<path id="XMLID_78_" class="st21" d="M68.8,38.1c-16.6-20.3-46.6-9.4-57.4,0.1l0.4,0.7c2.5-1.4,5.1-2.7,7.8-3.9
		c10.7-4.6,20.9-5.9,29.1-4.5c2.9,0.3,6,1.2,8.6,3c3.7,2.1,6.5,5,8.1,8.8c2.9,6.7,0.3,15.5-6.5,23C67.6,57.5,73.4,49.9,68.8,38.1z"
		/>
	<path id="XMLID_77_" class="st21" d="M102.7,61.7c-0.1-0.4-0.2-0.7-0.3-1.1c-0.9-3.4-2.9-6.1-5.6-7.8c-4.3-2.9-10.2-3.5-16.2-1
		c-3.1,1.4-5.8,3.4-8,5.9c1.7-1.4,3.5-2.6,5.6-3.5c5.9-2.5,11.9-1.9,16.2,1C97,57,99,59.7,100,63c0.1,0.4,0.2,0.7,0.3,1.1
		c0.3,1.3,0.4,2.6,0.3,3.9c-0.1,3.9-1.6,7.8-4,11.1c-0.4,0.5-0.8,1-1.2,1.5c1.4-1.2,2.6-2.5,3.6-3.9c2.4-3.3,3.8-7.2,4-11.1
		C103.1,64.3,103,63,102.7,61.7"/>
	<path id="XMLID_76_" class="st21" d="M86.3,56.8l2.4-2.4c-3-0.1-4.3,2.8-4.4,3C84.9,57,85.6,56.8,86.3,56.8"/>
	<path id="XMLID_75_" class="st21" d="M92.1,60.3c0.1,0.4,0.2,0.8,0.2,1.3c0,0.6-0.1,1.2-0.4,1.8c0.5-0.3,4-2,2.6-5.6
		C94.6,57.9,92,60.3,92.1,60.3"/>
	<path id="XMLID_74_" class="st21" d="M78.2,62.3c0-1.5,2.6-5.1,3.3-6.3c-4,2.6-5.8,6-5.8,8.7c0,4.7,4.1,8.4,9,8.4
		c2.3,0,6.6-1.2,9.3-5.7c-1.5,1-5.2,3.2-7.1,3.2C82.1,70.7,78.2,67,78.2,62.3"/>
	<polygon id="XMLID_73_" class="st21" points="112.8,85.4 115.8,85.6 115.2,64.1 112.7,66.6 	"/>
	<polygon id="XMLID_72_" class="st21" points="110.8,46.2 113.2,42.8 112.7,24.7 95.5,30.6 95.6,32.3 109.8,28.1 	"/>
	<polygon id="XMLID_71_" class="st21" points="125.1,24.9 123.5,28.4 135.2,39.4 138.4,37.1 	"/>
	<path id="XMLID_70_" class="st21" d="M136.4,59.9l-15.7-5.2l-2.3,2.4l15.6,6.2c1.8,3.3,4.4,6.2,7.8,8.3c3.3,2,7,3.2,11,3.6v7.7
		l2.4,1.2l0.8-11.6L136.4,59.9z"/>
	<path id="XMLID_69_" class="st21" d="M161.5,57.7c3.8-0.9,6.1-2.9,8-5.1c-1.4,1.2-8.6,2.7-9.8,3.1l-2.4,2.5
		C158.4,58.4,160.2,58.1,161.5,57.7"/>
	<path id="XMLID_68_" class="st21" d="M154.5,31.1c-7.1,0.9-10.8,6.9-11.4,7.6c2.6-2.2,5.9-3.9,9.6-4.7c8.8-2.1,16.5,0.6,21.3,6.5
		l3-2.5C172.3,32.1,163.3,29,154.5,31.1"/>
	<path id="XMLID_67_" class="st21" d="M178.3,60.1c0.9-0.7,2.4-1.4,3.2-2.3l-9.5-8.5c-0.7,0.9-1.4,2.3-2.3,3.1L178.3,60.1z"/>
	<path id="XMLID_66_" class="st21" d="M227,82.8c-10-8.2-9.4-25.7-4.5-31.3L218.2,24l-9.6,1.2l-0.4,2.4h7.3l3.8,25
		c-4.9,5.6-7.3,13.1-5.6,19.9c1.3,5.3,4.5,9.6,9.2,12.1c0.5,0.3,1,0.5,1.5,0.7l0.1,0.4l2.9,0.5C227.2,86.1,227.5,83.1,227,82.8z"/>
	<polygon id="XMLID_65_" class="st21" points="202.5,48.2 204.9,45.7 202.4,27.1 188.8,28.1 188.3,30.5 199.3,30.5 	"/>
	<polygon id="XMLID_64_" class="st21" points="204,71.5 204.8,73.9 209.9,60 207.5,62.4 	"/>
	<polygon id="XMLID_63_" class="st21" points="194.6,59.1 192,75.6 194.5,76.5 197,56.6 	"/>
	<path id="XMLID_62_" class="st21" d="M246.2,51.4c1.4,1,2.7,2.3,3.6,3.9c0.7,1.2,1.3,2.5,1.6,4c1.2,5-0.2,10.3-3.4,14.6
		c-0.3,0.4-0.7,0.9-1,1.3c1.3-1.1,16.8-12.6,1.6-27.6c-16.7-5.5-23,5.4-23.6,6.1c1.8-1.5,3.8-2.7,6-3.6
		C236.7,47.8,242.2,48.5,246.2,51.4"/>
	<path id="XMLID_61_" class="st21" d="M237.8,52.5c0,0.1,2.4-2.5,2.4-2.5c-3,0.1-4.4,1.6-4.3,2.2c-0.2,0.3-0.3,0.5-0.4,0.8
		C236.1,52.7,237.3,52.5,237.8,52.5"/>
	<path id="XMLID_60_" class="st21" d="M243.3,56.2c0.1,0.4,0.2,0.8,0.1,1.3c0,0.6-0.2,1.1-0.4,1.6c0.5-0.2,4.1-1.3,2.7-5.3
		C245.8,53.9,243.3,56.2,243.3,56.2"/>
	<path id="XMLID_59_" class="st21" d="M235.4,68.8c3.4,0.1,7.1-1.9,9.8-5.6c-6.8,1.4-14-10-13.3-11.1c-2.6,1.9-4.9,5.5-5,8
		C226.7,64.8,230.5,68.6,235.4,68.8"/>
	<polygon id="XMLID_58_" class="st21" points="279.5,37.4 279.3,40.8 291.1,43.5 273,98.5 274.6,99.6 294.1,40.8 	"/>
	<polygon id="XMLID_57_" class="st21" points="271.4,66 273.8,63.5 268.1,34.8 249.7,31.1 249.8,34.4 265.4,37.5 	"/>
	<polygon id="XMLID_56_" class="st21" points="257.4,87.8 259.9,88.6 264.1,61.1 261.7,63.5 	"/>
	<polygon id="XMLID_55_" class="st21" points="52.2,70.3 49.5,72.1 56.3,97.4 59.5,96.7 	"/>
	<path id="XMLID_54_" class="st21" d="M57.6,57c-1.7,1.8-5.4,5.2-7.5,6.6l-1.3-4.1L46,50.4l-1.8-6.1l-1.8,2.2l1.8,6.2l2.8,9.1
		l1.3,4.2C51.2,64,55.4,60.4,57.6,57"/>
	<path id="XMLID_53_" class="st20" d="M160.9,41.3c-2.3-0.9-5.6-0.6-7.3,1.3c-0.4,0.4-1.2,1.6-1.5,2.1c1.7-1.4,4.7-1.6,6.7-0.9
		L160.9,41.3z"/>
	<path id="XMLID_52_" class="st20" d="M55.5,49.5c-0.3-1.4-1.6-2.4-2.2-2.7c-1.2-0.6-3.2-0.7-4.7-0.4c0.3,0.9,0.6,2,0.7,2.4
		c0.6,0.1,1.6,0.3,2.1,0.5c0.6,0.3,1.8,1,2,2.4c0.4,1.8,0.3,3.5-0.5,4.9C55,54.6,56,52.4,55.5,49.5"/>
	<g id="XMLID_47_">
		<g id="XMLID_48_">
			<path id="XMLID_49_" class="st22" d="M59.2,49.5c-1-5.4-8-8.3-15-4.5l1.8,6.1l2.8,9.1l1.3,4.1C55.3,61,60.6,56.9,59.2,49.5z
				 M52.2,57.8c-0.8-2.5-2.4-7.8-2.4-7.8s-0.3-1.1-0.7-2.5c1.5-0.3,2.9-0.2,4.1,0.4c0.7,0.3,1.8,1,2,2.4
				C55.8,53.3,54.7,55.5,52.2,57.8z"/>
		</g>
	</g>
	<g id="XMLID_42_">
		<g id="XMLID_43_">
			<path id="XMLID_44_" class="st23" d="M164.5,41c-3.9-3.6-9.9-3.3-13.5,0.6s-3.3,9.9,0.6,13.5c0.3,0.3,0.7,0.6,1,0.8l12.6-14.2
				C165,41.4,164.7,41.2,164.5,41z M152.7,51c-1.2-2.3-1-5.1,0.9-7.1c1.8-1.9,4.5-2.5,6.8-1.6L152.7,51z"/>
		</g>
	</g>
	<polygon id="XMLID_41_" class="st24" points="181.3,39.4 174.3,46.1 180.9,52 	"/>
	<path id="XMLID_40_" class="st25" d="M245.8,53.8c0.1,0.4,0.2,0.8,0.1,1.3c-0.1,2.7-2.6,4.7-5.6,4.6c-3-0.1-5.3-2.4-5.2-5
		c0.1-2.5,2.3-4.4,5-4.6c-0.5-0.1-1.1-0.2-1.6-0.2c-5-0.2-9,3.3-9.2,7.7c-0.2,4.7,3.6,8.5,8.5,8.7c5,0.2,9.1-3.3,9.3-8
		C247.1,56.6,246.6,55.1,245.8,53.8"/>
	
		<linearGradient id="XMLID_00000001639677421057101980000016435876672546163081_" gradientUnits="userSpaceOnUse" x1="617.27" y1="-1413.0901" x2="635.0034" y2="-1413.0901" gradientTransform="matrix(1 0 0 -1 -539.0552 -1350.6401)">
		<stop  offset="0" style="stop-color:#3C5AA6"/>
		<stop  offset="0.9331" style="stop-color:#2B73B9"/>
		<stop  offset="1" style="stop-color:#2A75BB"/>
	</linearGradient>
	<path id="XMLID_39_" style="fill:url(#XMLID_00000001639677421057101980000016435876672546163081_);" d="M94.7,59.1
		c0,2.7-2.4,4.8-5.4,4.8s-5.4-2.1-5.4-4.8c0-2.5,2.1-4.5,4.9-4.8c-0.5-0.1-1.1-0.1-1.6-0.1c-5,0-8.9,3.7-8.9,8.1
		c0,4.7,3.9,8.4,8.8,8.4c5,0,8.9-3.7,8.9-8.4c0-1.6-0.5-3.2-1.5-4.4C94.6,58.3,94.7,58.7,94.7,59.1"/>
	<g id="XMLID_10_">
		<g id="XMLID_14_">
			
				<linearGradient id="XMLID_00000139980924838563966780000000362157276110605706_" gradientUnits="userSpaceOnUse" x1="543.2552" y1="-1403.9402" x2="839.0552" y2="-1403.9402" gradientTransform="matrix(1 0 0 -1 -539.0552 -1350.6401)">
				<stop  offset="0" style="stop-color:#3C5AA6"/>
				<stop  offset="0.9331" style="stop-color:#2B73B9"/>
				<stop  offset="1" style="stop-color:#2A75BB"/>
			</linearGradient>
			<path id="XMLID_15_" style="fill:url(#XMLID_00000139980924838563966780000000362157276110605706_);" d="M276.7,32.2l-2.2,9.1
				l-2-10.1l-27.3-6l0.2,15.2l4.1,0.9l-0.3,2.7c-0.1,0-0.1-0.1-0.1-0.1c-5.1-2.7-11.4-3-17.4-0.7c-2,0.8-3.9,1.8-5.5,3l-4.1-26
				h-18.2l-0.5,3h-19.1L182,36.6l-1.6-2c-4.6-5.7-11.4-8.8-18.8-9l16.2-8.7L166.5,0L146,23.6l3.5,4.3c-3.2,1.3-6,3.1-8.3,5.3
				l-17.6-15.6l-6.1,11.8l0.2-11.3l-27.4,8.8L91,41.6l4.7-1.2l0.7,7.5c-5.3-2.4-11.7-2.3-17.7,0.2c-1.8,0.8-3.4,1.7-4.9,2.8
				c1-4.6,0.8-9-0.9-13c-2-4.7-5.7-8.6-10.1-11.1c-3.1-2.1-6.8-3.3-10.7-3.8c-9.5-1.7-20.9,0-32.1,4.8c-4.1,1.8-8,3.8-11.4,6
				l-4.4,2.8L6.8,41L15,54.8l2.5,4.3l4.4-2.2l0.6-0.3l20.4,45.6l2,4.4l4.6-1.5l11.1-3.5l4.8-1.5l-1.3-4.9l-5.9-22.5
				c1.7-1.3,3.3-2.6,4.7-4c-0.3,2.7-0.2,5.4,0.6,8c1.5,5.5,5.1,9.8,10.1,12.2c5.4,2.6,11.9,2.6,18,0c3-1.3,5.7-3.2,8-5.4l0.8,9
				l19.4-2.9V72.2l40.5,20V72.8c1.6-0.1,3.3-0.4,4.9-0.8c4.5-1.1,8.3-2.6,11.7-4.6l-1.7,10.4l21.8,3.4l1.2-7.8l5.7,10.5l3.5-6.7
				l1.3,11l24.7,4.4l-1.3-8.3c3.4,0.4,7-0.1,10.4-1.4c0.8-0.3,1.6-0.7,2.4-1.1l-1,8.9l16.5,2.3l0.1,6.7l17.2,5.4L300,37.8
				L276.7,32.2z M180.1,42.2l1.1-1.2l-1.4,8.5l-3.6-3.2L180.1,42.2z M165.6,7.5l6,8.1l-17.1,8.5l-1.2-1.8L165.6,7.5z M52.2,70.3
				L59,96.5L48,100L25.3,49.3c-1.2,0.6-3.5,1.7-5.6,2.8l-8.2-13.9c3.3-2.1,6.9-3.9,10.7-5.5c10.7-4.6,20.9-5.9,29.1-4.5
				c2.9,0.3,5.9,1.2,8.6,3c3.7,2.1,6.5,5,8.1,8.8C71.9,49.1,65.3,62.2,52.2,70.3z M103,65.6c-0.1,3.9-1.6,7.8-4,11.1
				c-2.3,3.2-5.5,5.8-9.2,7.5c-9.6,4.1-19.2,0-21.8-9.1c-2.5-8.8,3.3-19.3,12.6-23.3c5.9-2.5,11.9-1.9,16.2,1
				c2.6,1.8,4.6,4.5,5.6,7.8c0.1,0.4,0.2,0.7,0.3,1.1C103,63,103.1,64.3,103,65.6z M155.3,84.1L115.2,64l0.1,21l-10.4,1.4l-0.7-8.7
				c3.2-5.5,4.4-12,2.7-17.9c-0.9-3.3-2.6-6.1-4.9-8.4l-1.5-17.7l-4.7,1.2l-0.2-4.5l16.7-5l1,17.2l12.3-17.3l12,11.4l-16.8,17.7
				l15.8,6.2c1.8,3.3,4.5,6.2,7.8,8.3c3.3,2,7,3.2,11,3.6L155.3,84.1L155.3,84.1z M134.4,55.1l-5.6-2.2l5.2-5.1
				C133.8,50.2,133.9,52.6,134.4,55.1z M178.1,60.3c-3.9,3.2-8.2,5.3-14,6.7c-1.3,0.3-2.5,0.5-3.7,0.6c-9.2,0.9-16.9-3.3-19.9-10.2
				c-0.4-0.8-0.6-1.7-0.9-2.6c-1.4-5.8-0.2-10.9,2.7-15c0.8-1.2,1.8-2.3,2.9-3.2c2.7-2.4,6.1-4.1,10-5.1c8.8-2.1,16.5,0.6,21.2,6.4
				l-16.7,17.8c1.1,0.2,2.9-0.1,4.3-0.4c4-1,6.2-3.1,8.2-5.4l6.7,6l2,1.8C179.9,58.7,179,59.5,178.1,60.3z M213.6,84.1L209.9,60
				l-5.1,13.3l-7.7-16.6H197l-3,19.2l-12.8-2.2L183,63c0.5-0.5,1-0.9,1.4-1.4l4.2-4.3l-4-3.6l4.3-25.6h12.9l3.2,17.7l3.6-20.5h9.3
				l3.8,25c-4.9,5.6-7.3,13.1-5.6,19.9c1.3,5.3,4.5,9.6,9.2,12.1c0.5,0.2,1,0.5,1.5,0.7l0.5,3.2L213.6,84.1z M245.5,76.2
				c-1.4,1-3,1.9-4.6,2.5c-3.3,1.3-6.6,1.5-9.5,0.9c-2-0.4-3.9-1.2-5.5-2.4c-2.6-1.9-4.5-4.6-5.3-8.1c-1-4.2-0.1-8.6,2.2-12.5
				c1.1-1.9,2.5-3.7,4.2-5.2c1.9-1.7,4.1-3.1,6.5-4c5.7-2.1,11.2-1.4,15.2,1.4c1.4,1,2.6,2.3,3.6,3.8c0.7,1.2,1.3,2.5,1.6,4
				c1.2,5-0.2,10.3-3.4,14.6C249.1,73.2,247.4,74.9,245.5,76.2z M274.4,98.9l-9.5-2.8l-0.8-35l-4.8,27L249,86.4l0.7-7.8
				c6.8-5.7,10.3-14.7,8.4-22.9c-0.9-3.6-2.7-6.8-5.3-9.2l0.9-9.2l-3.9-1l0.3-4.9l17.8,3.6l6,28.4l6.2-25.5l13.6,3L274.4,98.9z"/>
		</g>
	</g>
	<g>
		<path d="M284,102.9v-2.6h-0.9V100h2.2v0.3h-0.9v2.6H284z"/>
		<path d="M285.8,102.9V100h0.5l0.9,2.5l0.9-2.5h0.5v2.9h-0.3v-2.6l-0.9,2.6h-0.2l-0.9-2.6v2.6H285.8z"/>
	</g>
</g>
<g id="Layer_2">
	<g class="st28">
		<path d="M187,101c-17.7,0-32.6,12-37,28.3c-0.2-0.7-0.4-1.4-0.6-2h-15.2l10.5-9.4c-6.9-10.2-18.6-16.9-31.8-16.9
			c-21.2,0-38.4,17.2-38.4,38.4s17.2,38.4,38.4,38.4c17.7,0,32.6-12,37-28.3c4.4,16.3,19.3,28.3,37,28.3c21.2,0,38.4-17.2,38.4-38.4
			C225.4,118.2,208.3,101,187,101z"/>
		<path d="M300,37.8l-23.2-5.6l0,0l0,0l-0.1,0l0,0.1l-3.6,1.9l-0.6-3l-27.3-6l0,0.4l-0.1-0.4l-5,2.7l0.2,13.8
			c-2.8-0.1-5.7,0.4-8.6,1.5c-2,0.8-3.9,1.8-5.5,3l-4.1-26h-18.2l-5.1,2.7l0,0.3h-14.5l-0.2,1.3l0-1.3l-4.9,2.7l-1,6.3
			c-4.4-4.2-10.3-6.4-16.6-6.6l16.2-8.7L166.5,0l-5,2.6l-20.6,23.6l3.6,4.3l-4,2.1l-16.8-14.9l0-0.1l-0.1,0l0,0l0,0.1l-4.9,2.6
			l-1.1,2l0.1-4.2l-27.3,8.8l0-0.1l-5.1,2.8L86,44.2l4.7-1.1l0.3,3.3c-4-0.5-8.2,0-12.3,1.7c-1.8,0.8-3.4,1.7-4.9,2.8
			c1-4.6,0.8-9-0.9-13c-2-4.7-5.7-8.6-10.1-11.1c-3.1-2.1-6.8-3.3-10.7-3.8c-9.5-1.7-20.9,0-32.1,4.8c-4.1,1.8-8,3.8-11.4,6
			l-4.4,2.8l0-0.1L0,40.7l13.4,22.6l5-2.2L40,110l20.4-6.6l4.7-3.2l0.3-0.1l0-0.1l0,0l0,0l-1.3-4.8L61,83.3c1.6,3.2,4.1,5.7,4.1,5.7
			c2.2,2.1,4.8,3.7,7.8,4.5c5.7,1.6,12.2,0.6,17.7-3c1.2-0.8,2.9-2,4.1-3.1l0.7,7.7l19.3-2.8l5.2-2.7l-0.1-0.2V77.3l35.5,17.6l5-2.7
			V75.1l0.1,0.5c4.1-0.6,7.7-2.2,11.2-4.3c0,0,0.1-0.1,0.1-0.1l-1.5,9.3L192,84l4.2-2.3l2.7,4.9l3.9-2.1l0.8,6.5l24.8,4.4l5-2.7
			l-0.2-0.1l0.2,0l-0.9-6c1.7-0.2,3.5-0.4,5-1c0.6-0.2,1.4-0.5,2.4-0.9l-1,8.7l16.4,2.3l0.2,6.7l17.1,5.5l5-2.7l-0.3-0.2l0.4,0.1
			L300,37.8z M51.4,49.3c0.6,0.3,1.8,1,2,2.4c0.4,1.8,0.3,3.5-0.5,4.9c1-1,1.8-2,2.3-3.2c-0.4,1.6-1.4,3-3,4.4
			c-0.8-2.5-2.4-7.8-2.4-7.8s-0.1-0.5-0.3-1.2C50.1,48.9,50.9,49.1,51.4,49.3z M134.4,55.1l-5.6-2.2l5.2-5.1
			C133.8,50.2,133.9,52.6,134.4,55.1z M160.4,42.3l-7.7,8.7c-1.2-2.3-1-5.1,0.9-7.1c0,0,0,0,0.1-0.1c1.6-0.6,3.7-0.6,5.1,0l1.3-1.6
			C160.2,42.2,160.3,42.3,160.4,42.3z"/>
		<polygon points="283.1,100.3 284,100.3 284,102.9 284.4,102.9 284.4,100.3 285.3,100.3 285.3,100 283.1,100 		"/>
		<polygon points="287.2,102.5 286.3,100 285.8,100 285.8,102.9 286.3,102.9 286.3,100.3 287.2,102.9 287.4,102.9 288.3,100.3 
			288.3,102.9 288.6,102.9 288.6,100 288.1,100 		"/>
	</g>
</g>
</svg>
