<?xml version="1.0" encoding="utf-8"?>
<!-- Generator: Adobe Illustrator 26.0.0, SVG Export Plug-In . SVG Version: 6.00 Build 0)  -->
<svg version="1.1" id="Layer_1" xmlns="http://www.w3.org/2000/svg" xmlns:xlink="http://www.w3.org/1999/xlink" x="0px" y="0px"
	 viewBox="0 0 300 177.8" style="enable-background:new 0 0 300 177.8;" xml:space="preserve">
<style type="text/css">
	.st0{fill:#0D1330;}
	.st1{fill:none;}
	.st2{fill:#1B1F4F;}
	.st3{fill:#FFFFFF;}
	.st4{fill:#29377D;}
	.st5{fill:#28367B;}
	.st6{fill:#CAC9CC;}
	.st7{fill:#D53931;}
</style>
<ellipse transform="matrix(0.3827 -0.9239 0.9239 0.3827 -13.4277 258.804)" class="st0" cx="187" cy="139.4" rx="35.1" ry="35.1"/>
<path id="XMLID_330_" class="st1" d="M153.9,138.1L153.9,138.1v1.1V138.1z"/>
<path id="XMLID_324_" class="st1" d="M154,139.2L154,139.2C153.9,139.2,153.9,139.2,154,139.2C153.9,139.2,153.9,139.2,154,139.2
	C153.9,139.2,154,139.2,154,139.2L154,139.2z"/>
<path id="XMLID_315_" class="st0" d="M161,140.6c-0.2,0-0.4,0-0.6,0C160.6,140.6,160.8,140.6,161,140.6z"/>
<path id="XMLID_314_" class="st0" d="M167,140.8c-0.2,0-0.4,0-0.7,0C166.6,140.8,166.8,140.8,167,140.8z"/>
<path id="XMLID_313_" class="st0" d="M169.7,140.9L169.7,140.9L169.7,140.9z"/>
<path id="XMLID_312_" class="st0" d="M207.3,144.5L207.3,144.5L207.3,144.5z"/>
<path id="XMLID_309_" class="st0" d="M157.8,140.6C157.8,140.6,157.7,140.6,157.8,140.6C157.7,140.6,157.8,140.6,157.8,140.6z"/>
<path id="XMLID_308_" class="st0" d="M154.6,140.6c0.2,0,0.4,0,0.6,0C155,140.6,154.8,140.6,154.6,140.6z"/>
<path id="XMLID_307_" class="st0" d="M163.7,140.7L163.7,140.7L163.7,140.7z"/>
<path id="XMLID_305_" class="st2" d="M201.1,144.1c-2.3,6-7.2,10.3-14,10.3c-7.9,0-13.4-4.7-14.8-12.1c-5.6-0.2-13.3-0.4-19.2-0.4
	c1.3,17.1,16.6,31.5,34,31.5c10.3,0,19.4-5.7,25.5-13c2.9-3.6,6.1-8.8,7.4-13.4C214.5,146,206.9,145,201.1,144.1z"/>
<path id="XMLID_304_" class="st0" d="M154,139.2L154,139.2c0.2,0,0.4,0,0.6,0C154.4,139.2,154.2,139.2,154,139.2z"/>
<path id="XMLID_277_" class="st3" d="M216.7,144.7c-0.9-0.2-1.9-0.4-2.8-0.5l-0.8-0.1c-0.9-0.2-1.1-0.2-2-0.4
	c-0.2,0-0.5-0.1-0.7-0.1c-0.9-0.2-1.9-0.3-2.8-0.5l-0.9,0c-0.9-0.2-1-0.3-1.9-0.4c-0.2,0-0.5-0.2-0.7-0.2c-0.4-0.1-1.9-0.3-2.2-0.4
	c-0.1,0.5-0.2,1.5-0.3,1.9c0.4,0.1,1.8,0.3,2.3,0.4c0.2,0,0.5,0.1,0.7,0.1c0.9,0.1,1.9,0.3,2.8,0.4l0,0c0.9,0.2,1.9,0.3,2.8,0.5
	c0.2,0,0.5,0.1,0.7,0.1c1.9,0.3,3.7,0.7,5.6,1.1c0.2,0,0.5,0.1,0.7,0.1c0.7,0.1,1.4,0.4,2.1,0.5c0.1-0.4,0.3-1.1,0.4-1.5
	c-0.7-0.2-1.3-0.7-2-0.8C217.3,144.8,216.9,144.7,216.7,144.7z"/>
<path id="XMLID_276_" class="st3" d="M155.1,140.7c0.8,0,1.7,0,2.5,0l0.2,0c0.9,0,1.6,0,2.5,0c0.2,0,0.4,0,0.6,0
	c0.9,0,1.7,0,2.6,0.1l0.1,0c0.9,0,1.7,0.1,2.6,0.2c0.2,0,0.4,0,0.7,0c0.9,0,1.8,0.1,2.7,0.1l0.3,0c0.5,0,1.2-0.2,1.7-0.1
	c0-0.5-0.3-1.2-0.3-1.7c-1.3-0.1-3,0.1-4.3,0c-0.2,0-0.4,0-0.6,0c-1.8-0.1-3.7-0.1-5.5-0.1c-0.2,0-0.4,0-0.6,0c-1.8,0-3.6,0-5.4,0
	c-0.2,0-0.4,0-0.6,0s-0.4,0-0.6,0c0,0.1,0,0.1,0,0.2c0,0.4,0,1.1,0,1.5c0.2,0,0.4,0,0.6,0C154.7,140.7,154.9,140.7,155.1,140.7z"/>
<path id="XMLID_273_" class="st4" d="M203.9,142.8c0.2,0.1,0.4,0.1,0.7,0.2c1.2,0.2,1.9,0.3,2.8,0.4l0,0c0.9,0.2,2,0.4,2.9,0.6
	c0.2,0,0.6,0.1,0.8,0.1c0.9,0.2,1.9,0.3,2.8,0.5l0,0c0.9,0.2,1.8,0.4,2.7,0.5c0.2,0,0.7,0.1,1,0.2c0.7,0.1,1.2,0.3,1.9,0.5
	c0.1-0.4,0.3-1,0.3-1.5c-5.3-1.2-11.1-2.1-16.8-3c0,0.5-0.1,1-0.2,1.5C203.3,142.8,203.6,142.7,203.9,142.8z"/>
<path id="XMLID_272_" class="st4" d="M155.2,139.2c1.7,0,3.5,0,5.3,0c0.2,0,0.4,0,0.6,0c1.8,0,3.6,0.1,5.4,0.1c0.2,0,0.4,0,0.6,0
	c1.3,0,2.8,0.1,4.1,0.2c0-0.1,0-0.1,0-0.2c0-0.4,0-0.8,0-1.2c-5.5-0.2-11.5-0.4-17.3-0.4c0,0.5-0.1,1-0.1,1.5c0.2,0,0.6,0,0.8,0
	C154.9,139.2,155,139.2,155.2,139.2z"/>
<path id="XMLID_271_" class="st4" d="M216.4,146.5c-1.9-0.4-3.7-0.7-5.6-1.1c-0.2,0-0.5-0.1-0.7-0.1c-0.9-0.2-1.9-0.3-2.8-0.5l0,0
	c-0.9-0.2-1.9-0.3-2.8-0.4c-0.2,0-0.5-0.1-0.7-0.1c-0.4-0.1-0.8-0.1-1.3-0.2c-0.1,0.4-0.3,0.9-0.4,1.3c5.8,0.8,11.6,1.8,17,3
	c0.1-0.4,0.2-1,0.3-1.4c-0.7-0.2-1.6-0.2-2.3-0.4C216.9,146.6,216.7,146.6,216.4,146.5z"/>
<path id="XMLID_269_" class="st4" d="M154,140.6L154,140.6C153.9,140.6,153.9,140.6,154,140.6C153.9,140.6,153.9,140.6,154,140.6
	L154,140.6L154,140.6z"/>
<path id="XMLID_268_" class="st4" d="M160.4,140.6c-0.9,0-1.7,0-2.6,0C158.6,140.6,159.5,140.6,160.4,140.6z"/>
<path id="XMLID_266_" class="st4" d="M213.9,144.3L213.9,144.3L213.9,144.3z"/>
<path id="XMLID_265_" class="st4" d="M157.7,140.6c-0.9,0-1.7,0-2.5,0C156,140.6,156.9,140.6,157.7,140.6z"/>
<path id="XMLID_257_" class="st4" d="M154.6,139.2c0.2,0,0.4,0,0.6,0C155,139.2,154.8,139.2,154.6,139.2z"/>
<path id="XMLID_253_" class="st4" d="M154,140.6L154,140.6c0.2,0,0.4,0,0.6,0C154.4,140.6,154.2,140.6,154,140.6z"/>
<path id="XMLID_175_" class="st3" d="M161.1,138.9c0-0.2-0.2-0.4-0.3-0.4c-0.2,0-0.3,0.2-0.3,0.4s0.2,0.4,0.3,0.4
	C161,139.3,161.1,139.1,161.1,138.9z"/>
<path id="XMLID_174_" class="st3" d="M160.6,132.6c0-0.3-0.2-0.5-0.4-0.5s-0.4,0.2-0.4,0.5s0.2,0.5,0.4,0.5
	C160.4,133.1,160.6,132.9,160.6,132.6z"/>
<path id="XMLID_173_" class="st3" d="M165.2,131.8c0-0.3-0.3-0.5-0.8-0.5c-0.4,0-0.8,0.2-0.8,0.5s0.3,0.5,0.8,0.5
	C164.8,132.3,165.2,132.1,165.2,131.8z"/>
<path id="XMLID_172_" class="st3" d="M165.1,129.3c0-0.2-0.2-0.4-0.5-0.4s-0.5,0.2-0.5,0.4s0.2,0.4,0.5,0.4
	C164.9,129.7,165.1,129.5,165.1,129.3z"/>
<path id="XMLID_171_" class="st3" d="M166,125c0-0.3,0.2-0.5,0.4-0.5s0.4,0.2,0.4,0.5s-0.2,0.5-0.4,0.5S166,125.3,166,125z"/>
<path id="XMLID_170_" class="st3" d="M170.9,129.2c0,0.3-0.2,0.5-0.5,0.5s-0.5-0.2-0.5-0.5s0.2-0.5,0.5-0.5S170.9,128.9,170.9,129.2
	z"/>
<path id="XMLID_169_" class="st3" d="M174.7,125c0-0.3-0.2-0.5-0.5-0.5s-0.5,0.2-0.5,0.5s0.2,0.5,0.5,0.5S174.7,125.2,174.7,125z"/>
<path id="XMLID_168_" class="st3" d="M162.5,121.1c0-0.3-0.2-0.6-0.4-0.6s-0.4,0.2-0.4,0.6c0,0.3,0.2,0.6,0.4,0.6
	C162.3,121.6,162.5,121.4,162.5,121.1z"/>
<path id="XMLID_167_" class="st3" d="M164.4,119.8c0-0.3-0.2-0.6-0.6-0.6c-0.3,0-0.6,0.3-0.6,0.6s0.2,0.6,0.6,0.6
	C164.1,120.4,164.4,120.1,164.4,119.8z"/>
<path id="XMLID_166_" class="st3" d="M187.2,107.6c-0.3-0.3-0.6-0.4-0.8-0.2c-0.2,0.2-0.1,0.5,0.2,0.8s0.6,0.4,0.8,0.2
	C187.6,108.3,187.5,107.9,187.2,107.6z"/>
<path id="XMLID_165_" class="st3" d="M186.3,109.7c0-0.3-0.2-0.5-0.3-0.5c-0.2,0-0.3,0.2-0.3,0.5s0.2,0.5,0.3,0.5
	S186.3,110,186.3,109.7z"/>
<path id="XMLID_164_" class="st3" d="M188.3,109.5c0-0.1-0.2-0.3-0.5-0.3s-0.5,0.1-0.5,0.3c0,0.1,0.2,0.3,0.5,0.3
	C188.1,109.7,188.3,109.6,188.3,109.5z"/>
<path id="XMLID_163_" class="st3" d="M174.7,112c0-0.2-0.2-0.4-0.5-0.4s-0.5,0.2-0.5,0.4c0,0.2,0.2,0.4,0.5,0.4
	S174.7,112.2,174.7,112z"/>
<path id="XMLID_162_" class="st3" d="M183.5,114.2c0-0.3,0.2-0.5,0.4-0.5s0.4,0.2,0.4,0.5s-0.2,0.5-0.4,0.5S183.5,114.5,183.5,114.2
	z"/>
<path id="XMLID_161_" class="st3" d="M175.3,115.4c0-0.3-0.2-0.5-0.5-0.5s-0.5,0.2-0.5,0.5s0.2,0.5,0.5,0.5S175.3,115.7,175.3,115.4
	z"/>
<path id="XMLID_160_" class="st3" d="M172.1,118c0-0.2-0.2-0.4-0.5-0.4s-0.5,0.2-0.5,0.4c0,0.2,0.2,0.4,0.5,0.4
	C171.8,118.4,172.1,118.2,172.1,118z"/>
<path id="XMLID_159_" class="st3" d="M182.6,120.5c0-0.2-0.2-0.4-0.6-0.4c-0.3,0-0.6,0.2-0.6,0.4c0,0.2,0.2,0.4,0.6,0.4
	C182.4,120.9,182.6,120.7,182.6,120.5z"/>
<path id="XMLID_158_" class="st3" d="M188.8,119.8c0-0.3,0.1-0.6,0.3-0.6s0.3,0.2,0.3,0.6c0,0.3-0.1,0.6-0.3,0.6
	C189,120.4,188.8,120.2,188.8,119.8z"/>
<path id="XMLID_157_" class="st3" d="M192.7,117.8c0,0.3-0.2,0.5-0.4,0.5s-0.4-0.2-0.4-0.5s0.2-0.5,0.4-0.5
	C192.5,117.4,192.7,117.6,192.7,117.8z"/>
<path id="XMLID_156_" class="st3" d="M191.6,123c0-0.3,0.2-0.6,0.6-0.6c0.3,0,0.6,0.2,0.6,0.6c0,0.3-0.2,0.6-0.6,0.6
	C191.9,123.5,191.6,123.3,191.6,123z"/>
<path id="XMLID_155_" class="st3" d="M199.2,114.4c0,0.2-0.2,0.4-0.4,0.4s-0.4-0.2-0.4-0.4c0-0.2,0.2-0.4,0.4-0.4
	C199.1,114,199.2,114.2,199.2,114.4z"/>
<path id="XMLID_154_" class="st3" d="M196.1,123.7c-0.4-0.3-0.5-0.7-0.4-0.9c0.2-0.2,0.6-0.1,0.9,0.3c0.4,0.3,0.5,0.7,0.4,0.9
	C196.8,124.1,196.4,124,196.1,123.7z"/>
<path id="XMLID_153_" class="st3" d="M199.8,120.4c0-0.2-0.2-0.4-0.3-0.4c-0.2,0-0.3,0.2-0.3,0.4c0,0.2,0.2,0.4,0.3,0.4
	C199.6,120.7,199.8,120.6,199.8,120.4z"/>
<path id="XMLID_152_" class="st3" d="M199.3,124.2c0-0.3-0.2-0.5-0.3-0.5s-0.3,0.2-0.3,0.5s0.2,0.5,0.3,0.5S199.3,124.5,199.3,124.2
	z"/>
<path id="XMLID_151_" class="st3" d="M201.7,124.3c0-0.3-0.2-0.6-0.3-0.6c-0.2,0-0.3,0.2-0.3,0.6c0,0.3,0.2,0.6,0.3,0.6
	S201.7,124.7,201.7,124.3z"/>
<path id="XMLID_150_" class="st3" d="M200.6,128.7c0-0.2-0.2-0.4-0.3-0.4c-0.2,0-0.3,0.2-0.3,0.4s0.2,0.4,0.3,0.4
	C200.5,129.2,200.6,129,200.6,128.7z"/>
<path id="XMLID_149_" class="st3" d="M204.2,129.5c0,0.2-0.3,0.4-0.7,0.4s-0.7-0.2-0.7-0.4s0.3-0.4,0.7-0.4
	C203.8,129.1,204.2,129.3,204.2,129.5z"/>
<path id="XMLID_148_" class="st3" d="M205.3,118.1c0-0.3-0.3-0.6-0.6-0.6s-0.6,0.3-0.6,0.6c0,0.3,0.3,0.6,0.6,0.6
	S205.3,118.4,205.3,118.1z"/>
<path id="XMLID_147_" class="st3" d="M210.5,123.2c0-0.2,0.2-0.4,0.4-0.4s0.4,0.2,0.4,0.4c0,0.2-0.2,0.4-0.4,0.4
	C210.6,123.6,210.5,123.4,210.5,123.2z"/>
<path id="XMLID_146_" class="st3" d="M210.7,136.6c0-0.3-0.3-0.6-0.8-0.6c-0.4,0-0.8,0.3-0.8,0.6s0.3,0.6,0.8,0.6
	C210.3,137.2,210.7,136.9,210.7,136.6z"/>
<path id="XMLID_145_" class="st3" d="M215.9,132.1c0-0.3-0.2-0.6-0.5-0.6s-0.5,0.2-0.5,0.6c0,0.3,0.2,0.6,0.5,0.6
	C215.6,132.6,215.9,132.4,215.9,132.1z"/>
<path id="XMLID_144_" class="st3" d="M204.5,141.8c0,0.2-0.2,0.4-0.5,0.4s-0.5-0.2-0.5-0.4s0.2-0.4,0.5-0.4
	C204.3,141.3,204.5,141.5,204.5,141.8z"/>
<path id="XMLID_143_" class="st3" d="M212.1,140.4c0-0.2-0.2-0.4-0.5-0.4s-0.5,0.2-0.5,0.4s0.2,0.4,0.5,0.4
	C211.8,140.8,212.1,140.6,212.1,140.4z"/>
<path id="XMLID_142_" class="st3" d="M218.3,139.9c0-0.2-0.2-0.4-0.4-0.4s-0.4,0.2-0.4,0.4s0.2,0.4,0.4,0.4
	C218.1,140.3,218.3,140.2,218.3,139.9z"/>
<path class="st5" d="M171.4,142.3c-0.2-0.4,0-0.9,0-1.4c-0.5,0-1.5,0.2-2,0.1c-0.9,0-1.8-0.1-2.7-0.1c-0.2,0-0.4,0-0.7,0
	c-0.9,0-1.8-0.1-2.7-0.1c-0.9,0-1.7,0-2.6-0.1c-0.2,0-0.4,0-0.6,0c-0.9,0-1.7,0-2.6,0c-0.9,0-1.7,0-2.5,0c-0.2,0-0.4,0-0.6,0
	s-0.4,0-0.6,0c0,0.5,0,0.9,0.1,1.4c0,0,0,0,0,0c0,0.1,0,0.2,0,0.3c5.6-0.1,11.8-0.1,17.6,0.2L171.4,142.3
	C171.5,142.4,171.5,142.3,171.4,142.3z"/>
<path class="st5" d="M218.4,149.9c0.2-0.6,0.4-1.1,0.5-1.7c-2.4-0.5-4.9-1-7.3-1.4c0.7,0.1,1.4,0.3,2.1,0.4
	C211,147.8,217.3,149.3,218.4,149.9z"/>
<path class="st5" d="M167.2,165.8c0.2,0,0.5-0.1,0.8-0.1c4.1-0.5,9.4-2.3-1.4-1.8c-2-0.2-0.9-0.3-0.9-0.3s2.5-2.1-2-1.8
	c-1.4-0.5-1.4-1.7-1.4-1.7s1.5-0.2,2.7,0.5c1.2,0.6,3.9,1,4.8,0.2c0.9-0.9-3.4-1.5-0.5-2.3c3.3-0.1,8.1-1,3.4-1.5s-5.9,1.1-7.5,0.7
	c-1.6-0.3-4.5-1-5.2-0.2c-0.1,0.1-0.3,0.2-0.7,0.2c2.1,3.2,4.7,5.9,7.7,8.2C167,165.8,167,165.8,167.2,165.8
	C167.1,165.8,167.1,165.8,167.2,165.8z"/>
<path class="st5" d="M173.3,168.3c0.7-1.1-1.1-1.4-2.1-1.1c-0.4,0.1-1.7,0-2.8-0.2c1.5,1,3.4,2,5.1,2.8
	C173.2,169.5,173,168.8,173.3,168.3z"/>
<path class="st5" d="M214.6,157.2c-6.1-0.9-8.1-0.1-2.2,2.7c-2.1,4.2-6.5,5.8-6.5,5.8c-0.7-1.3-5.8,1-8.2,1.4
	c-2.3,0.4-7.8,2.7-7.7,1.5c0.2-1.1-2.7-1.7-3.4-0.6c-0.7,1.1-2.2,1.4-3.3,1.5s-2.2,0.5-3,1c-0.6,0.4-3.4,0.2-4.9,0
	c3.6,1.4,7.7,2.1,11.8,2.1c10.3,0,19.4-4.6,25.5-11.9c0.8-1,1.6-2.3,2.3-3.4C214.9,157.3,214.7,157.3,214.6,157.2z"/>
<path class="st5" d="M167.2,165.8C167.1,165.8,167.1,165.8,167.2,165.8c-0.1,0-0.2,0-0.2,0l0,0C167,165.9,167.1,165.9,167.2,165.8z"
	/>
<path id="XMLID_113_" class="st6" d="M187,106.3c18.3,0,33.1,14.8,33.1,33.1s-14.8,33.1-33.1,33.1s-33.1-14.8-33.1-33.1
	C154,121.1,168.8,106.3,187,106.3 M187,103.6c-19.8,0-35.8,16.1-35.8,35.8s16.1,35.8,35.8,35.8s35.8-16.1,35.8-35.8
	S206.8,103.6,187,103.6L187,103.6z"/>
<g>
	<path id="XMLID_222_" class="st6" d="M203.3,139.3c0,8.9-7.2,16.1-16.1,16.1c-8.9,0-16.1-7.2-16.1-16.1c0-8.9,7.2-16.1,16.1-16.1
		C196,123.2,203.3,130.4,203.3,139.3z"/>
	<g id="XMLID_216_">
		<circle class="st7" cx="187.1" cy="139.4" r="12.6"/>
		<path class="st0" d="M187.1,127.7c6.5,0,11.8,5.3,11.8,11.8s-5.3,11.8-11.8,11.8s-11.8-5.3-11.8-11.8
			C175.3,132.9,180.6,127.7,187.1,127.7 M187.1,126.1c-7.4,0-13.3,6-13.3,13.3c0,7.4,6,13.3,13.3,13.3c7.4,0,13.3-6,13.3-13.3
			C200.4,132.1,194.4,126.1,187.1,126.1L187.1,126.1z"/>
	</g>
	<g id="XMLID_213_">
		<path class="st3" d="M198.9,140.3c0,5.1-4.9,11-11.8,11c-6.9,0-11.8-5.9-11.8-11"/>
	</g>
	<g id="XMLID_212_">
		<line class="st1" x1="175.3" y1="139.4" x2="198.9" y2="139.4"/>
		<rect x="174.8" y="138.7" class="st0" width="24.5" height="1.6"/>
	</g>
	<g id="XMLID_206_">
		<circle class="st3" cx="187" cy="139.5" r="4.6"/>
		<path class="st0" d="M187,135.6c2.1,0,3.9,1.7,3.9,3.9c0,2.1-1.7,3.9-3.9,3.9c-2.1,0-3.9-1.7-3.9-3.9
			C183.2,137.3,184.9,135.6,187,135.6 M187,134c-3,0-5.4,2.4-5.4,5.4s2.4,5.4,5.4,5.4s5.4-2.4,5.4-5.4C192.5,136.5,190,134,187,134
			L187,134z"/>
	</g>
</g>
</svg>
