<?xml version="1.0" encoding="utf-8"?>
<!-- Generator: Adobe Illustrator 26.0.0, SVG Export Plug-In . SVG Version: 6.00 Build 0)  -->
<svg version="1.1"
	 id="Layer_1" xmlns:cc="http://creativecommons.org/ns#" xmlns:dc="http://purl.org/dc/elements/1.1/" xmlns:inkscape="http://www.inkscape.org/namespaces/inkscape" xmlns:rdf="http://www.w3.org/1999/02/22-rdf-syntax-ns#" xmlns:sodipodi="http://sodipodi.sourceforge.net/DTD/sodipodi-0.dtd" xmlns:svg="http://www.w3.org/2000/svg"
	 xmlns="http://www.w3.org/2000/svg" xmlns:xlink="http://www.w3.org/1999/xlink" x="0px" y="0px" viewBox="0 0 300 110"
	 style="enable-background:new 0 0 300 110;" xml:space="preserve">
<style type="text/css">
	.st0{fill:url(#polygon16_00000165234342097203471620000005626821328643706284_);}
	.st1{fill:#0071B9;}
	.st2{fill:url(#polygon25_00000161600732988820318400000016643851812109508261_);}
	.st3{fill:#1D2C5E;}
	.st4{fill:url(#polygon36_00000090286051652141722400000003435663519650143877_);}
	.st5{fill:url(#polygon43_00000171707624222632608620000016369502245943042978_);}
	.st6{fill:#312370;}
	.st7{fill:#21386E;}
	.st8{fill:url(#polygon56_00000149368877776546172750000013558082721883314088_);}
	.st9{fill:url(#path69_00000031908136165286489060000016492884481962411455_);}
	.st10{fill:url(#polygon78_00000145018614445122604200000011622333047595777701_);}
	.st11{fill:#FFCB05;}
	.st12{fill:#7D7F68;}
	.st13{fill:#C7A008;}
	.st14{fill:#3C5AA6;}
	.st15{fill:#3567B0;}
	.st16{fill:#1E2D5F;}
	.st17{fill:#3466AF;}
	.st18{fill:url(#path183_00000011027292358535497820000008820617498865972671_);}
	.st19{fill:url(#path196_00000046322927069561855290000014481648371529191859_);}
</style>
<g>
	
		<sodipodi:namedview  bordercolor="#666666" borderopacity="1" gridtolerance="10" guidetolerance="10" id="namedview103" inkscape:current-layer="Layer_1" inkscape:cx="134.7345" inkscape:cy="49.407001" inkscape:pageopacity="0" inkscape:pageshadow="2" inkscape:window-height="706" inkscape:window-maximized="1" inkscape:window-width="1280" inkscape:window-x="-8" inkscape:window-y="-8" inkscape:zoom="4.1563223" objecttolerance="10" pagecolor="#ffffff" showgrid="false">
		</sodipodi:namedview>
	
		<linearGradient id="polygon16_00000171705099265775535970000015526367411986261661_" gradientUnits="userSpaceOnUse" x1="428.2576" y1="-629.5788" x2="417.1053" y2="-608.7949" gradientTransform="matrix(1 0 0 -1 -413.451 -569.9903)">
		<stop  offset="0" style="stop-color:#0070B6"/>
		<stop  offset="1" style="stop-color:#1D2C5E"/>
	</linearGradient>
	<polygon id="polygon16" style="fill:url(#polygon16_00000171705099265775535970000015526367411986261661_);" points="0,40.7 
		13.4,63.3 18.7,58.2 4.2,36.5 	"/>
	<polygon id="polygon18" class="st1" points="198.8,22.9 198.3,25.9 204.7,23.8 203.9,20.2 	"/>
	
		<linearGradient id="polygon25_00000032612511981721749560000002497754143753897625_" gradientUnits="userSpaceOnUse" x1="564.2754" y1="-587.1201" x2="578.4313" y2="-571.9525" gradientTransform="matrix(1 0 0 -1 -413.451 -569.9903)">
		<stop  offset="0" style="stop-color:#0070B6"/>
		<stop  offset="1" style="stop-color:#1D2C5E"/>
	</linearGradient>
	<polygon id="polygon25" style="fill:url(#polygon25_00000032612511981721749560000002497754143753897625_);" points="161.5,2.6 
		140.9,26.2 146.9,24.5 166.5,0 	"/>
	<polygon id="polygon27" class="st3" points="271.7,34.9 276.8,32.2 275.3,44.9 	"/>
	<polygon id="polygon29" class="st3" points="240.3,43 244.8,43.9 250.5,41.2 245.5,39.3 	"/>
	
		<linearGradient id="polygon36_00000126288871294944907070000008461638100811778959_" gradientUnits="userSpaceOnUse" x1="502.5171" y1="-612.4072" x2="500.829" y2="-598.2256" gradientTransform="matrix(1 0 0 -1 -413.451 -569.9903)">
		<stop  offset="0" style="stop-color:#0070B6"/>
		<stop  offset="1" style="stop-color:#1D2C5E"/>
	</linearGradient>
	<polygon id="polygon36" style="fill:url(#polygon36_00000126288871294944907070000008461638100811778959_);" points="85.3,29.6 
		86,44.2 92.3,41.7 90.4,26.8 	"/>
	
		<linearGradient id="polygon43_00000157288131340008474720000014076528379439782319_" gradientUnits="userSpaceOnUse" x1="657.1485" y1="-609.6772" x2="656.4744" y2="-596.8765" gradientTransform="matrix(1 0 0 -1 -413.451 -569.9903)">
		<stop  offset="0" style="stop-color:#125D9E"/>
		<stop  offset="1" style="stop-color:#1D2C5E"/>
	</linearGradient>
	<polygon id="polygon43" style="fill:url(#polygon43_00000157288131340008474720000014076528379439782319_);" points="245.1,25.2 
		240.1,27.9 240.3,43 245.4,40.4 247,33.1 	"/>
	<polygon id="polygon45" class="st6" points="244.4,44 238.9,93.4 247.8,91.6 249.5,41.3 	"/>
	<polygon id="polygon47" class="st7" points="255.3,95.7 255.5,102.4 272.6,107.9 277.6,105.2 260.9,92.2 243.9,90.7 238.9,93.4 	
		"/>
	<polygon id="polygon49" class="st7" points="192,84 196.2,81.7 198.9,86.6 202.8,84.5 203.6,91 228.4,95.4 233.4,92.7 199.2,71.8 
		174.9,76 170.2,80.5 	"/>
	
		<linearGradient id="polygon56_00000176037909762972536640000012084123075155067523_" gradientUnits="userSpaceOnUse" x1="609.9048" y1="-591.2266" x2="595.0495" y2="-614.8598" gradientTransform="matrix(1 0 0 -1 -413.451 -569.9903)">
		<stop  offset="0" style="stop-color:#125D9E"/>
		<stop  offset="1" style="stop-color:#1D2C5E"/>
	</linearGradient>
	<polygon id="polygon56" style="fill:url(#polygon56_00000176037909762972536640000012084123075155067523_);" points="184.1,23.2 
		179.2,25.9 170.2,80.5 175.2,77.9 183.8,47.2 	"/>
	<polygon id="polygon58" class="st3" points="144.5,30.5 140.5,32.6 140.9,33.9 150.3,27.9 146.2,23.5 140.9,26.2 	"/>
	<polygon id="polygon60" class="st7" points="155.3,94.9 114.9,74.9 119.9,71.1 160.3,92.2 	"/>
	<polygon id="polygon62" class="st3" points="118.7,20.3 112.5,32 119,30 123.7,17.6 	"/>
	
		<linearGradient id="path69_00000040551630122373052600000015185018081788585885_" gradientUnits="userSpaceOnUse" x1="478.4348" y1="-629.1328" x2="488.5636" y2="-649.053" gradientTransform="matrix(1 0 0 -1 -413.451 -569.9903)">
		<stop  offset="0" style="stop-color:#105FA1"/>
		<stop  offset="1" style="stop-color:#1D2C5E"/>
	</linearGradient>
	<path id="path69" style="fill:url(#path69_00000040551630122373052600000015185018081788585885_);" d="M63,68.4l-5.2,3.6
		c0,0,1.1,5.8,2.5,9.8c1.4,4,4.8,7.3,4.8,7.3c2.2,2.1,4.8,3.7,7.8,4.5c5.7,1.6,12.2,0.6,17.7-3c1.4-0.9,3.4-2.4,4.6-3.5
		C89.9,90.3,63,68.4,63,68.4z"/>
	<polygon id="polygon71" class="st3" points="90.7,43.1 95.4,95.1 114.7,92.3 119.9,89.6 96,39.9 91,41.6 86,44.2 	"/>
	
		<linearGradient id="polygon78_00000052068020741901796340000011352184761274447757_" gradientUnits="userSpaceOnUse" x1="440.216" y1="-622.3334" x2="451.9385" y2="-649.5084" gradientTransform="matrix(1 0 0 -1 -413.451 -569.9903)">
		<stop  offset="0" style="stop-color:#105FA1"/>
		<stop  offset="1" style="stop-color:#1D2C5E"/>
	</linearGradient>
	<polygon id="polygon78" style="fill:url(#polygon78_00000052068020741901796340000011352184761274447757_);" points="18.4,61.1 
		40,110 60.4,103.4 65.4,100 23,55.6 17.6,58.8 13.4,63.3 	"/>
	<path id="path80" class="st3" d="M232,84.2l0.3,2.4c1.8-0.2,3.6-0.4,5.2-1c1.8-0.6,5.9-2.4,7.4-3.7C244.3,82.1,234.9,84.5,232,84.2
		"/>
	<path id="path82" class="st3" d="M159.6,71.7l0.8,3.9c4.1-0.6,7.7-2.1,11.2-4.3c2.2-1.3,4.6-3.3,5.4-3.8
		C176.4,67.9,159.6,71.7,159.6,71.7z"/>
	<g id="g84" transform="translate(-5.451,-1.686)">
		<path id="path86" class="st11" d="M51,107.1l-1.6-3.6L29,57.9L28.6,57l-0.9,0.4L27,57.7l-3.6,1.8c-0.5-0.9-1.4-2.4-2-3.5
			l-8.2-13.9L11,38.5l3.6-2.3c3.4-2.1,7.2-4.1,11.3-5.9c8.2-3.5,16.6-5.4,24.3-5.4c2.5,0,5,0.2,7.3,0.6c3.8,0.4,7.4,1.7,10.3,3.6
			c4.3,2.4,7.8,6.2,9.7,10.7c1.6,3.7,1.9,8,0.9,12.4l-0.6,2.6l2.2-1.6c1.5-1.1,3.1-2,4.7-2.7c2.9-1.2,5.9-1.8,8.9-1.8
			c2.8,0,5.5,0.6,8,1.7l1.6,0.7l-0.2-1.7l-0.7-7.5l-0.1-1.2l-1.2,0.3L97.4,42l-0.6-12.7l25.4-8.1L122,31l1.9,0.5l5.5-10.6L146,35.6
			l0.7,0.6l0.7-0.6c2.3-2.1,5-3.8,8-5.1l1.3-0.5l-0.9-1.1l-3-3.6l19-21.9l10,14.9l-15.3,8.2l-3.4,1.8l3.8,0.1
			c7.2,0.2,13.6,3.2,18,8.6l1.6,2l1,1.3L186,42l-1.1,1.2l-3.8,4.1l-0.7,0.8l0.8,0.7l3.6,3.2l1.4,1.2l0.3-1.8l1.4-8.5l0.4-2.2l0,0
			l0.4-2.2l2-12.5h18.3h0.9l0.1-0.8l0.4-2.1h16.5l4,25.2l0.3,1.6l1.3-1c1.6-1.2,3.4-2.1,5.3-2.9c2.5-1,5.1-1.4,7.8-1.4
			c3.1,0,6.1,0.7,8.7,2.1c0.1,0.1,0.2,0.1,0.3,0.2l1.2,0.5l0.1-1.3l0.3-2.7l0.1-0.9l-0.9-0.2l-3.3-0.7l-0.2-13.1l25.4,5.6l1.9,9.4
			l2,0l2-8.1l21.2,5.2l-21.7,65.4l-15.5-4.9l-0.1-6l0-0.9l-0.9-0.1l-15.5-2.2l0.9-7.9l0.2-1.9l-1.7,0.9c-0.8,0.4-1.6,0.7-2.3,1
			c-2.5,1-5.1,1.4-7.7,1.4c-0.7,0-1.5,0-2.2-0.1l-1.3-0.1l0.2,1.3l1.1,6.9l-22.6-4l-1.2-10.3l-0.4-3.3l-1.5,2.9l-2.6,5l-4.8-8.8
			l-1.4-2.7l-0.5,3l-1,6.8l-19.8-3.1l1.5-9.4l0.4-2.2l-1.9,1.1c-3.2,1.9-7,3.4-11.4,4.5c-1.5,0.4-3.2,0.6-4.8,0.8l-0.9,0.1v0.9v17.7
			l-39-19.3l-1.5-0.7l0,1.6l0,16.5L106.9,93l-0.7-7.9l-0.2-2.1l-1.5,1.5c-2.3,2.3-4.9,4-7.7,5.2c-2.9,1.2-5.8,1.8-8.8,1.8
			c-3,0-5.8-0.6-8.3-1.8c-4.7-2.3-8.1-6.4-9.5-11.5c-0.7-2.4-0.9-5-0.6-7.6l0.3-2.8l-2,1.9c-1.4,1.4-3,2.7-4.6,3.9l-0.6,0.4l0.2,0.7
			l5.9,22.5l1,4l-3.9,1.3l-11.1,3.5L51,107.1L51,107.1z M56,46.5c-0.6,0-1.2,0.1-1.8,0.2l-0.8,0.1l-1.1,0.2l0.3,1.1l0.2,0.7
			l3.2,10.3l0.3,1l0.5,1.5l1.2-1l0.8-0.7c3.1-2.8,4.1-5.6,3.5-9.1c-0.4-2.1-2-3.2-3-3.6C58.3,46.8,57.2,46.5,56,46.5L56,46.5
			L56,46.5z M140.8,46.9l-2,1.9l-5.2,5.1l-1.1,1.1l1.5,0.6l5.6,2.2l1.7,0.7l-0.4-1.8c-0.5-2.3-0.6-4.7-0.4-6.9L140.8,46.9
			C140.8,46.9,140.8,46.9,140.8,46.9z M163.5,41.1c-2.2,0-4.2,0.9-5.7,2.5c-2.3,2.5-2.7,6.1-1.1,9l0.4,0.8l0.7,1.3l1-1.1l0.6-0.7
			l7.6-8.7l0.6-0.7l1-1.1l-1.4-0.5l-0.9-0.3C165.4,41.3,164.5,41.1,163.5,41.1L163.5,41.1L163.5,41.1z"/>
	</g>
	<path id="path88" class="st12" d="M169.7,52.4c-0.1,0.1-0.1,0.1-0.2,0.2C169.6,52.5,169.7,52.5,169.7,52.4L169.7,52.4z"/>
	<polygon id="polygon90" class="st12" points="176.3,46.3 180.1,42.2 178.8,43.6 178.8,43.4 177.7,44.6 173.9,48.7 177.4,51.9 
		178.1,47.9 179.9,49.5 	"/>
	<polygon id="polygon92" class="st12" points="176.3,46.3 179.9,49.5 181.2,41 180.1,42.2 	"/>
	<path id="path94" class="st12" d="M128.8,52.9L128.8,52.9L128.8,52.9z"/>
	<path id="path96" class="st13" d="M149.9,56.4c0.3,0.3,0,0.1,0.4,0.3l2.3-1.6c-0.3-0.2-0.7-0.5-1-0.8c-3.4-3.1-2.5-10-0.3-13.8
		C145.5,45.2,145.8,52.3,149.9,56.4"/>
	<path id="path98" class="st13" d="M178.1,60.3c-3.9,3.2-8.2,5.3-14,6.7c-1.3,0.3-2.5,0.5-3.7,0.6c-9.2,0.9-16.9-3.3-19.9-10.2
		c-0.4-0.8-0.6-1.7-0.9-2.6c-1.4-5.8-0.2-10.9,2.7-15c0.3-0.4,0.6-0.8,0.9-1.1c-0.1,0.1-0.3,0.2-0.4,0.3c-1.1,1-2.1,2-2.9,3.2
		c-2.9,4-4,9.2-2.6,15c0.2,0.9,0.5,1.8,0.8,2.6c2.9,6.9,10.7,11.1,19.9,10.2c1.2-0.1,2.5-0.3,3.7-0.6c5.8-1.4,10.2-3.5,14-6.7
		c0.9-0.8,1.8-1.6,2.7-2.5l-0.1-0.1C178.2,60.2,178.2,60.3,178.1,60.3"/>
	<polygon id="polygon100" class="st13" points="113.2,42.9 123.5,28.4 123.1,28 113.1,42 	"/>
	<polygon id="polygon102" class="st13" points="181.2,41 179.9,49.5 178.1,47.9 177.4,51.9 173.9,48.7 177.7,44.6 178.8,43.4 
		178.8,43.6 180.1,42.2 	"/>
	<polygon id="polygon104" class="st13" points="168.5,17.2 172.1,15.6 165.5,7.2 163.4,10.2 	"/>
	<path id="path106" class="st13" d="M68.8,38.1c-16.6-20.3-46.6-9.4-57.4,0.1l0.4,0.7c2.5-1.4,5.1-2.7,7.8-3.9
		c10.7-4.6,20.9-5.9,29.1-4.5c2.9,0.3,6,1.2,8.6,3c3.7,2.1,6.5,5,8.1,8.8c2.9,6.7,0.3,15.5-6.5,23C67.6,57.5,73.4,49.9,68.8,38.1z"
		/>
	<path id="path108" class="st13" d="M102.7,61.7c-0.1-0.4-0.2-0.7-0.3-1.1c-0.9-3.4-2.9-6.1-5.6-7.8c-4.3-2.9-10.2-3.5-16.2-1
		c-3.1,1.4-5.8,3.4-8,5.9c1.7-1.4,3.5-2.6,5.6-3.5c5.9-2.5,11.9-1.9,16.2,1c2.6,1.8,4.6,4.5,5.6,7.8c0.1,0.4,0.2,0.7,0.3,1.1
		c0.3,1.3,0.4,2.6,0.3,3.9c-0.1,3.9-1.6,7.8-4,11.1c-0.4,0.5-0.8,1-1.2,1.5c1.4-1.2,2.6-2.5,3.6-3.9c2.4-3.3,3.8-7.2,4-11.1
		C103.1,64.3,103,63,102.7,61.7"/>
	<path id="path110" class="st13" d="M86.3,56.8c0,0,2.4-2.4,2.4-2.4c-3-0.1-4.3,2.8-4.4,3C84.9,57,85.6,56.8,86.3,56.8"/>
	<path id="path112" class="st13" d="M92.1,60.3c0.1,0.4,0.2,0.8,0.2,1.3c0,0.6-0.1,1.2-0.4,1.8c0.5-0.3,4-2,2.6-5.6
		C94.6,57.9,92,60.3,92.1,60.3"/>
	<path id="path114" class="st13" d="M78.2,62.3c0-1.5,2.6-5.1,3.3-6.3c-4,2.6-5.8,6-5.8,8.7c0,4.7,4.1,8.4,9,8.4
		c2.3,0,6.6-1.2,9.3-5.7c-1.5,1-5.2,3.2-7.1,3.2C82.1,70.7,78.2,67,78.2,62.3"/>
	<polygon id="polygon116" class="st13" points="112.7,66.6 112.8,85.4 115.8,85.6 115.2,64.1 	"/>
	<polygon id="polygon118" class="st13" points="95.5,30.6 95.6,32.3 109.8,28.1 110.8,46.2 113.2,42.8 112.7,24.7 	"/>
	<polygon id="polygon120" class="st13" points="138.4,37.1 125.1,24.9 123.5,28.4 135.2,39.4 	"/>
	<path id="path122" class="st13" d="M136.4,59.9l-15.7-5.2l-2.3,2.4l15.6,6.2c1.8,3.3,4.4,6.2,7.8,8.3c3.3,2,7,3.2,11,3.6v7.7
		l2.4,1.2l0.8-11.6L136.4,59.9L136.4,59.9z"/>
	<path id="path124" class="st13" d="M161.5,57.7c3.8-0.9,6.1-2.9,8-5.1c-1.4,1.2-8.6,2.7-9.8,3.1l-2.4,2.5
		C158.4,58.4,160.2,58.1,161.5,57.7"/>
	<path id="path126" class="st13" d="M154.5,31.1c-7.1,0.9-10.8,6.9-11.4,7.6c2.6-2.2,5.9-3.9,9.6-4.7c8.8-2.1,16.5,0.6,21.3,6.5
		l3-2.5C172.3,32.1,163.3,29,154.5,31.1"/>
	<path id="path128" class="st13" d="M178.3,60.1c0.9-0.7,2.4-1.4,3.2-2.3l-9.5-8.5c-0.7,0.9-1.4,2.3-2.3,3.1L178.3,60.1L178.3,60.1z
		"/>
	<path id="path130" class="st13" d="M227,82.8c-10-8.2-9.4-25.7-4.5-31.3L218.2,24l-9.6,1.2l-0.4,2.4h7.3l3.8,25
		c-4.9,5.6-7.3,13.1-5.6,19.9c1.3,5.3,4.5,9.6,9.2,12.1c0.5,0.3,1,0.5,1.5,0.7l0.1,0.4l2.9,0.5C227.2,86.1,227.5,83.1,227,82.8
		L227,82.8z"/>
	<polygon id="polygon132" class="st13" points="188.8,28.1 188.3,30.5 199.3,30.5 202.5,48.2 204.9,45.7 202.4,27.1 	"/>
	<polygon id="polygon134" class="st13" points="207.5,62.4 204,71.5 204.8,73.9 209.9,60 	"/>
	<polygon id="polygon136" class="st13" points="197,56.6 194.6,59.1 192,75.6 194.5,76.5 	"/>
	<path id="path138" class="st13" d="M246.2,51.4c1.4,1,2.7,2.3,3.6,3.9c0.7,1.2,1.3,2.5,1.6,4c1.2,5-0.2,10.3-3.4,14.6
		c-0.3,0.4-0.7,0.9-1,1.3c1.3-1.1,16.8-12.6,1.6-27.6c-16.7-5.5-23,5.4-23.6,6.1c1.8-1.5,3.8-2.7,6-3.6
		C236.7,47.8,242.2,48.5,246.2,51.4"/>
	<path id="path140" class="st13" d="M237.8,52.5c0,0.1,2.4-2.5,2.4-2.5c-3,0.1-4.4,1.6-4.3,2.2c-0.2,0.3-0.3,0.5-0.4,0.8
		C236.1,52.7,237.3,52.5,237.8,52.5"/>
	<path id="path142" class="st13" d="M243.3,56.2c0.1,0.4,0.2,0.8,0.1,1.3c0,0.6-0.2,1.1-0.4,1.6c0.5-0.2,4.1-1.3,2.7-5.3
		C245.8,53.9,243.3,56.2,243.3,56.2"/>
	<path id="path144" class="st13" d="M235.4,68.8c3.4,0.1,7.1-1.9,9.8-5.6c-6.8,1.4-14-10-13.3-11.1c-2.6,1.9-4.9,5.5-5,8
		C226.7,64.8,230.5,68.6,235.4,68.8"/>
	<polygon id="polygon146" class="st13" points="273,98.5 274.6,99.6 294.1,40.8 279.5,37.4 279.3,40.9 291.1,43.5 	"/>
	<polygon id="polygon148" class="st13" points="249.7,31.1 249.8,34.4 265.4,37.5 271.4,66 273.8,63.5 268.1,34.8 	"/>
	<polygon id="polygon150" class="st13" points="261.7,63.5 257.4,87.8 259.9,88.6 264.1,61.1 	"/>
	<polygon id="polygon152" class="st13" points="59.5,96.7 52.2,70.3 49.5,72.1 56.3,97.4 	"/>
	<path id="path154" class="st13" d="M57.6,57c-1.7,1.8-5.4,5.2-7.5,6.6l-1.3-4.1L46,50.4l-1.8-6.1l-1.8,2.2l1.8,6.2l2.8,9.1l1.3,4.2
		C51.2,64,55.5,60.4,57.6,57"/>
	<path id="path156" class="st12" d="M160.9,41.3c-2.3-0.9-5.6-0.6-7.3,1.3c-0.4,0.4-1.2,1.6-1.5,2.1c1.7-1.4,4.7-1.6,6.7-0.9
		L160.9,41.3L160.9,41.3z"/>
	<path id="path158" class="st12" d="M55.5,49.5c-0.3-1.4-1.6-2.4-2.2-2.7c-1.2-0.6-3.2-0.7-4.7-0.4c0.3,0.9,0.6,2,0.7,2.4
		c0.6,0.1,1.6,0.3,2.1,0.5c0.6,0.3,1.8,1,2,2.4c0.4,1.8,0.3,3.5-0.5,4.9C55,54.6,56,52.4,55.5,49.5"/>
	<g id="g160" transform="translate(-5.451,-1.686)">
		<g id="g162">
			<path id="path164" class="st14" d="M64.6,51.2c-1-5.4-8-8.3-15-4.5l1.8,6.1l2.8,9.1l1.3,4.1C60.8,62.7,66,58.6,64.6,51.2z
				 M57.7,59.4c-0.8-2.5-2.4-7.8-2.4-7.8c0,0-0.3-1.1-0.7-2.5c1.5-0.3,2.9-0.2,4.1,0.4c0.7,0.3,1.8,1,2,2.4
				C61.2,55,60.2,57.2,57.7,59.4z"/>
		</g>
	</g>
	<g id="g166" transform="translate(-5.451,-1.686)">
		<g id="g168">
			<path id="path170" class="st15" d="M170,42.7c-3.9-3.6-9.9-3.3-13.5,0.6c-3.6,3.9-3.3,9.9,0.6,13.5c0.3,0.3,0.7,0.6,1,0.8
				l12.6-14.2C170.4,43.1,170.2,42.9,170,42.7z M158.1,52.7c-1.2-2.3-1-5.1,0.9-7.1c1.8-1.9,4.5-2.5,6.8-1.6L158.1,52.7z"/>
		</g>
	</g>
	<polygon id="polygon172" class="st16" points="181.3,39.4 174.3,46.1 180.9,52 	"/>
	<path id="path174" class="st17" d="M245.8,53.8c0.1,0.4,0.2,0.8,0.1,1.3c-0.1,2.7-2.6,4.7-5.6,4.6c-3-0.1-5.3-2.4-5.2-5
		c0.1-2.5,2.3-4.4,5-4.6c-0.5-0.1-1.1-0.2-1.6-0.2c-5-0.2-9.1,3.3-9.2,7.7c-0.2,4.7,3.6,8.5,8.5,8.7c5,0.2,9.1-3.3,9.3-8
		C247.1,56.6,246.6,55.1,245.8,53.8"/>
	
		<linearGradient id="path183_00000047753232305252647320000012320187913537063827_" gradientUnits="userSpaceOnUse" x1="647.6659" y1="1023.1243" x2="665.3997" y2="1023.1243" gradientTransform="matrix(1 0 0 1 -569.451 -960.686)">
		<stop  offset="0" style="stop-color:#3C5AA6"/>
		<stop  offset="0.9331" style="stop-color:#2B73B9"/>
		<stop  offset="1" style="stop-color:#2A75BB"/>
	</linearGradient>
	<path id="path183" style="fill:url(#path183_00000047753232305252647320000012320187913537063827_);" d="M94.7,59.1
		c0,2.7-2.4,4.8-5.4,4.8c-3,0-5.4-2.1-5.4-4.8c0-2.5,2.1-4.5,4.9-4.8c-0.5-0.1-1.1-0.1-1.6-0.1c-5,0-8.9,3.7-8.9,8.1
		c0,4.7,3.9,8.4,8.8,8.4c5,0,8.9-3.7,8.9-8.4c0-1.6-0.5-3.2-1.5-4.4C94.6,58.3,94.7,58.7,94.7,59.1"/>
	<g id="g185" transform="translate(-5.451,-1.686)">
		<g id="g187">
			
				<linearGradient id="path196_00000093868879833558028120000017810786315964217516_" gradientUnits="userSpaceOnUse" x1="579.0502" y1="1015.6818" x2="874.902" y2="1015.6818" gradientTransform="matrix(1 0 0 1 -569.451 -960.686)">
				<stop  offset="0" style="stop-color:#3C5AA6"/>
				<stop  offset="0.9331" style="stop-color:#2B73B9"/>
				<stop  offset="1" style="stop-color:#2A75BB"/>
			</linearGradient>
			<path id="path196" style="fill:url(#path196_00000093868879833558028120000017810786315964217516_);" d="M282.2,33.9L280,43
				l-2-10.1l-27.3-6l0.2,15.2l4.1,0.9l-0.3,2.7c-0.1,0-0.1-0.1-0.1-0.1c-5.1-2.7-11.4-3-17.4-0.7c-2,0.8-3.9,1.8-5.5,3l-4.1-26
				h-18.2l-0.5,3h-19.1l-2.2,13.4l-1.6-2c-4.6-5.7-11.4-8.8-18.8-9l16.2-8.7L171.9,1.7l-20.5,23.6l3.5,4.3c-3.2,1.3-6,3.1-8.3,5.3
				l-17.6-15.6L123,31.1l0.2-11.3l-27.4,8.8l0.7,14.7l4.7-1.2l0.7,7.5c-5.3-2.4-11.7-2.3-17.7,0.2c-1.8,0.8-3.4,1.7-4.9,2.8
				c1-4.6,0.8-9-0.9-13c-2-4.7-5.7-8.6-10.1-11.1c-3.1-2.1-6.8-3.3-10.7-3.8c-9.5-1.7-20.9,0-32.1,4.8c-4.1,1.8-8,3.8-11.4,6
				l-4.4,2.8l2.6,4.5l8.2,13.9c0,0,2.5,4.3,2.5,4.3l4.4-2.2l0.6-0.3l20.4,45.6l2,4.4l4.6-1.5l11.1-3.5l4.8-1.5l-1.3-4.9l-5.9-22.5
				c1.7-1.3,3.3-2.6,4.7-4c-0.3,2.7-0.2,5.4,0.6,8c1.5,5.5,5.1,9.8,10.1,12.2c5.4,2.6,11.9,2.6,18,0c3-1.3,5.7-3.2,8-5.4l0.8,9
				l19.4-2.9l0-17.4l40.5,20V74.5c1.6-0.1,3.3-0.4,4.9-0.8c4.5-1.1,8.3-2.6,11.7-4.6l-1.7,10.4l21.8,3.4l1.2-7.8l5.7,10.5l3.5-6.7
				l1.3,11l24.7,4.4l-1.3-8.3c3.4,0.4,7-0.1,10.4-1.4c0.8-0.3,1.6-0.7,2.4-1.1l-1,8.9l16.5,2.3l0.1,6.7l17.2,5.4l22.3-67.3
				L282.2,33.9L282.2,33.9z M185.6,43.9l1.1-1.2l-1.4,8.5l-3.6-3.2L185.6,43.9z M171.1,9.2l6,8.1l-17.1,8.5l-1.2-1.8L171.1,9.2z
				 M57.6,72l6.8,26.2l-11.1,3.5L30.7,51c-1.2,0.6-3.5,1.7-5.6,2.8l-8.2-13.9c3.3-2.1,6.9-3.9,10.7-5.5c10.7-4.6,20.9-5.9,29.1-4.5
				c2.9,0.3,5.9,1.2,8.6,3c3.7,2.1,6.5,5,8.1,8.8C77.3,50.7,70.7,63.9,57.6,72z M108.5,67.3c-0.1,3.9-1.6,7.8-4,11.1
				c-2.3,3.2-5.5,5.8-9.2,7.5c-9.6,4.1-19.2,0-21.8-9.1c-2.5-8.8,3.3-19.3,12.6-23.3c5.9-2.5,11.9-1.9,16.2,1
				c2.6,1.8,4.6,4.5,5.6,7.8c0.1,0.4,0.2,0.7,0.3,1.1C108.4,64.7,108.5,66,108.5,67.3z M160.7,85.8l-40.1-20.1l0.1,21l-10.4,1.4
				l-0.7-8.7c3.2-5.5,4.4-12,2.7-17.9c-0.9-3.3-2.6-6.1-4.9-8.4l-1.5-17.7l-4.7,1.2l-0.2-4.5l16.7-5l1,17.2l12.3-17.3l12,11.4
				l-16.8,17.7l15.8,6.2c1.8,3.3,4.5,6.2,7.8,8.3c3.3,2,7,3.2,10.9,3.6L160.7,85.8L160.7,85.8L160.7,85.8z M139.9,56.7l-5.6-2.2
				l5.2-5.1C139.3,51.9,139.4,54.3,139.9,56.7z M183.5,62c-3.9,3.2-8.2,5.3-14,6.7c-1.3,0.3-2.5,0.5-3.7,0.6
				c-9.2,0.9-16.9-3.3-19.9-10.2c-0.4-0.8-0.6-1.7-0.9-2.6c-1.4-5.8-0.2-10.9,2.7-15c0.8-1.2,1.8-2.3,2.9-3.2
				c2.7-2.4,6.1-4.1,10-5.1c8.8-2.1,16.5,0.6,21.2,6.4l-16.7,17.8c1.1,0.2,2.9-0.1,4.3-0.4c4-1,6.2-3.1,8.2-5.4l6.7,6l2,1.8
				C185.4,60.4,184.5,61.2,183.5,62z M219,85.8l-3.6-24.1L210.2,75l-7.7-16.6h-0.1l-3,19.2l-12.8-2.2l1.8-10.7
				c0.5-0.5,1-0.9,1.4-1.4l4.2-4.3l-4-3.6l4.3-25.6h12.9l3.2,17.7l3.6-20.5h9.3l3.8,25c-4.9,5.6-7.3,13.1-5.6,19.9
				c1.3,5.3,4.5,9.6,9.2,12.1c0.5,0.2,1,0.5,1.5,0.7l0.5,3.2L219,85.8L219,85.8z M251,77.9c-1.4,1-3,1.9-4.6,2.5
				c-3.3,1.3-6.6,1.5-9.5,0.9c-2-0.4-3.9-1.2-5.5-2.4c-2.6-1.9-4.5-4.6-5.3-8.1c-1-4.2-0.1-8.6,2.2-12.5c1.1-1.9,2.5-3.7,4.2-5.2
				c1.9-1.7,4.1-3.1,6.5-4c5.7-2.1,11.2-1.4,15.2,1.4c1.4,1,2.6,2.3,3.6,3.8c0.7,1.2,1.3,2.5,1.6,4c1.2,5-0.2,10.3-3.4,14.6
				C254.5,74.9,252.9,76.6,251,77.9z M279.9,100.6l-9.5-2.8l-0.8-35l-4.8,27l-10.4-1.7l0.7-7.8c6.8-5.7,10.3-14.7,8.4-22.9
				c-0.9-3.6-2.7-6.8-5.3-9.2l0.9-9.2l-3.9-1l0.3-4.9l17.8,3.6l6,28.4l6.2-25.5l13.6,3L279.9,100.6L279.9,100.6z"/>
		</g>
	</g>
	<g id="flowRoot3115" transform="matrix(0.93943959,0,0,0.93943959,14.793383,6.4307935)">
		<path id="path3084" d="M284.7,102v-2.8h-1.1v-0.4h2.5v0.4h-1.1v2.8H284.7z"/>
		<path id="path3086" d="M286.6,102v-3.2h0.6l0.8,2.3c0.1,0.2,0.1,0.4,0.2,0.5c0-0.1,0.1-0.3,0.2-0.5l0.8-2.2h0.6v3.2h-0.4v-2.7
			l-0.9,2.7h-0.4l-0.9-2.7v2.7H286.6z"/>
	</g>
</g>
</svg>
